<svg width="60" height="50" viewBox="0 0 60 50" fill="none" xmlns="http://www.w3.org/2000/svg">
<path d="M59.417 25L44.721 49.5H15.279L0.583053 25L15.279 0.5H44.721L59.417 25Z" fill="white" stroke="#962932"/>
<g clip-path="url(#clip0)">
<path d="M25.7812 28.5158H38.4846C38.7991 28.5158 39.0751 28.3078 39.1602 28.0057L41.9729 18.1617C42.0333 17.9495 41.9919 17.7216 41.8588 17.5452C41.7255 17.3694 41.5182 17.2656 41.2971 17.2656H24.158L23.6554 15.0039C23.584 14.6818 23.2983 14.4531 22.9688 14.4531H18.7031C18.3146 14.4531 18 14.7677 18 15.1562C18 15.545 18.3146 15.8594 18.7031 15.8594H22.4044L24.9435 27.2852C24.1965 27.61 23.6719 28.3536 23.6719 29.2189C23.6719 30.382 24.6182 31.3283 25.7812 31.3283H38.4846C38.8733 31.3283 39.1877 31.0139 39.1877 30.6252C39.1877 30.2366 38.8733 29.9221 38.4846 29.9221H25.7812C25.394 29.9221 25.0781 29.6069 25.0781 29.2189C25.0781 28.8309 25.394 28.5158 25.7812 28.5158V28.5158Z" fill="#962932"/>
<path d="M25.0781 33.4377C25.0781 34.6009 26.0244 35.5471 27.1877 35.5471C28.3508 35.5471 29.2971 34.6009 29.2971 33.4377C29.2971 32.2746 28.3508 31.3283 27.1877 31.3283C26.0244 31.3283 25.0781 32.2746 25.0781 33.4377Z" fill="#962932"/>
<path d="M34.9689 33.4377C34.9689 34.6009 35.9152 35.5471 37.0783 35.5471C38.2416 35.5471 39.1877 34.6009 39.1877 33.4377C39.1877 32.2746 38.2416 31.3283 37.0783 31.3283C35.9152 31.3283 34.9689 32.2746 34.9689 33.4377Z" fill="#962932"/>
</g>
<defs>
<clipPath id="clip0">
<rect x="18" y="13" width="24" height="24" fill="white"/>
</clipPath>
</defs>
</svg>
