<svg xmlns="http://www.w3.org/2000/svg" width="100" height="83.333" viewBox="0 0 100 83.333">
  <g id="Group_134" data-name="Group 134" transform="translate(-28 -841)">
    <g id="Polygon_6" data-name="Polygon 6" transform="translate(28 841)" fill="none">
      <path d="M75,0l25,41.667L75,83.333H25L0,41.667,25,0Z" stroke="none"/>
      <path d="M 25.56619262695313 1 L 1.166191101074219 41.66666793823242 L 25.56617736816406 82.33333587646484 L 74.43379974365234 82.33333587646484 L 98.83380889892578 41.66666793823242 L 74.43379974365234 1 L 25.56619262695313 1 M 25 0 L 74.99998474121094 0 L 100 41.66666793823242 L 74.99998474121094 83.33333587646484 L 24.99998474121094 83.33333587646484 L 0 41.66666793823242 L 25 0 Z" stroke="none" fill="#dfe9eb"/>
    </g>
    <g id="noun_Discount_1603382" transform="translate(58 860)">
      <path id="Path_39" data-name="Path 39" d="M49.519,50.516a3.938,3.938,0,0,0-2.341-.707,3.858,3.858,0,0,0-2.233.787,4.18,4.18,0,0,0-.435.384l-.29.3-.562.595-1.091,1.156-2.013,2.154q-1.03,1.119-1.873,2.084a3.782,3.782,0,0,0-.178-.5A4.008,4.008,0,0,0,35.356,54.4c-.169,0-.351-.028-.515-.037H32.3c-3.844,0-7.688.052-11.05.159h-.623a6.313,6.313,0,0,0-.716.056,6.976,6.976,0,0,0-1.353.314,6.836,6.836,0,0,0-3.015,2.032l-.609.7c-.384.468-.73.871-1.03,1.245-.084.108.061.4.323.651s.468.337.585.258c.375-.3.791-.646,1.245-1.03l.7-.609a5.744,5.744,0,0,1,.7-.538,5.45,5.45,0,0,1,1.686-.735,5.24,5.24,0,0,1,.969-.14H21.24c3.362.108,7.206.159,11.05.159h2.519l.2.037a1.517,1.517,0,0,1,1.194.857,1.559,1.559,0,0,1-.061,1.484,1.62,1.62,0,0,1-1.231.782l-2.369.1-2.215.1c-1.381.084-2.58.178-3.535.286-.131,0-.234.318-.225.674s.108.567.225.581c.936.108,2.154.206,3.535.286l2.2.112,1.185.047H35a3.886,3.886,0,0,0,3.118-1.718,3.82,3.82,0,0,0,.552-1.259c.913-.8,1.962-1.746,3.142-2.809l2.158-2.009,1.156-1.091.595-.562.3-.286a2.071,2.071,0,0,1,.2-.154,1.662,1.662,0,0,1,1.929.047,1.643,1.643,0,0,1,.571.847,1.606,1.606,0,0,1-.07,1.03,1.4,1.4,0,0,1-.281.435c-.037.037-.042.052-.108.112L48.115,55l-.342.332L46.4,56.682l-2.772,2.744-5.553,5.558-.665.665a5.745,5.745,0,0,1-.6.515,5.9,5.9,0,0,1-1.377.758,6,6,0,0,1-1.508.37c-.126,0-.258.028-.384.028H32.2c-4.865.07-9.266.187-12.642.346h-.07a.791.791,0,0,0-.538.248c-1.629,1.723-2.547,2.753-3.277,3.624-.136.155-.028.468.234.721s.515.286.655.164c.824-.707,1.793-1.573,3.343-3.034,3.338.15,7.613.262,12.328.328H33.6a3.519,3.519,0,0,0,.543-.028,8.343,8.343,0,0,0,4.139-1.48,8.163,8.163,0,0,0,.876-.721l.37-.361.346-.342,5.562-5.548,2.744-2.772,1.339-1.372.332-.342.164-.169c.051-.052.145-.159.215-.234a3.849,3.849,0,0,0,.693-1.166,3.952,3.952,0,0,0-1.4-4.682Z" transform="translate(-10.382 -27.321)"/>
      <path id="Path_40" data-name="Path 40" d="M6.761,15.485l.164.281.627,1.072.936,1.573L7.262,20.724l-.332.641a2.515,2.515,0,0,0,1,3.38l.2.1.14.056.267.112,1.016.421,1.817.726c.234.094.543-.1.674-.431a.557.557,0,0,0-.145-.707l-1.714-.913L9.21,23.6l-.258-.131-.15-.052-.066-.042a.9.9,0,0,1-.22-.22.847.847,0,0,1-.145-.613.8.8,0,0,1,.117-.3l.365-.618,1.611-2.744a.936.936,0,0,0,0-.936V17.9L9.378,15.817l-.576-1.1-.145-.276a.867.867,0,0,1-.037-.108.59.59,0,0,1,0-.225.576.576,0,0,1,.22-.384,1.657,1.657,0,0,1,.351-.173l.641-.286,2.692-1.208a1.156,1.156,0,0,0,.67-.9v-.028l.337-2.491L13.7,7.366v-.08a.178.178,0,0,1,0-.033.183.183,0,0,1,0-.042.468.468,0,0,1,.033-.08A.44.44,0,0,1,13.84,7a.431.431,0,0,1,.318-.1l.506.1.665.136,2.706.543A1.264,1.264,0,0,0,19.206,7.3h0L20.995,5.4l.885-.936a.379.379,0,0,1,.276-.117.384.384,0,0,1,.281.112l.866.936,1.812,1.934h0A1.269,1.269,0,0,0,26.29,7.7l2.645-.529,1.213-.243a.421.421,0,0,1,.314.084.435.435,0,0,1,.169.309L30.8,8.612l.337,2.542v.028a1.171,1.171,0,0,0,.684.936l2.556,1.152.627.281.309.14.089.042.047.028a.543.543,0,0,1,.267.295.567.567,0,0,1,0,.22.656.656,0,0,1-.028.108v.056l-.075.145-.6,1.128-1.171,2.172-.023.047a.969.969,0,0,0,.023.936l1.5,2.538.375.609.089.145.061.108a.6.6,0,0,1,.066.14.819.819,0,0,1-.042.613.791.791,0,0,1-.187.248,1.367,1.367,0,0,1-.356.22l-1.035.534L32.47,25a.6.6,0,0,0-.108.81.571.571,0,0,0,.651.356l1.934-.782,1.072-.445a3.043,3.043,0,0,0,.7-.379,2.449,2.449,0,0,0,.637-.674,2.552,2.552,0,0,0,.3-1.915,2.341,2.341,0,0,0-.169-.468l-.056-.117-.042-.08-.08-.155L37,20.537l-1.086-2.126.965-1.653.641-1.1.08-.14.122-.234a2.856,2.856,0,0,0,.173-.515,2.809,2.809,0,0,0-1.133-2.936,2.046,2.046,0,0,0-.243-.15l-.215-.112-.309-.15-.618-.3-1.915-.936-.211-1.9-.145-1.3a2.931,2.931,0,0,0-3.226-2.594l-.248.052-.164.033-.328.061-.66.126-1.948.37-1.32-1.4-.468-.468-.225-.243L24.4,2.8l-.056-.061-.1-.1a2.964,2.964,0,0,0-4.214.056l-.936.983-1.3,1.4-2.013-.384-.665-.126a7.73,7.73,0,0,0-.819-.131,2.908,2.908,0,0,0-2.968,2.13,2.341,2.341,0,0,0-.056.276v.211L11.13,8.331,10.924,10.2l-2.079,1-.632.3c-.117.061-.169.08-.37.187a2.556,2.556,0,0,0-.468.323,2.781,2.781,0,0,0-.824,2.978A2.964,2.964,0,0,0,6.761,15.485Z" transform="translate(-6.41 -1.781)"/>
      <path id="Path_41" data-name="Path 41" d="M30.7,35.641c.262.2.468.323.524.3,2.332-1.629,7.3-8.128,8.264-10.806a1.8,1.8,0,0,0-.468-.468c-.262-.206-.468-.314-.51-.29C36.164,26,31.191,32.49,30.232,35.145,30.18,35.206,30.4,35.435,30.7,35.641Z" transform="translate(-19.074 -13.795)"/>
      <path id="Path_42" data-name="Path 42" d="M43.771,44.161a3.371,3.371,0,0,0,4.584-1.2,3.278,3.278,0,0,0,.468-1.568,10.38,10.38,0,0,0-.07-1.185,3.029,3.029,0,0,0-1.367-2.154,2.538,2.538,0,0,0-1.8-.379c-.07,0-.122.323-.117.684a1.821,1.821,0,0,0,.061.6,1.793,1.793,0,0,1,.707.548,1.283,1.283,0,0,1,.267.89c0,.1-.042.693-.07.819a.988.988,0,0,1-1.943,0c-.028-.131-.052-.726-.07-.824a1.3,1.3,0,0,1,.272-.9,1.812,1.812,0,0,1,.716-.552,2.079,2.079,0,0,0,.052-.66c0-.314-.052-.562-.112-.576a2.519,2.519,0,0,0-1.8.37,3.015,3.015,0,0,0-1.372,2.144,10.407,10.407,0,0,0-.075,1.18,3.277,3.277,0,0,0,.468,1.568,3.357,3.357,0,0,0,1.2,1.2Z" transform="translate(-25.39 -20.849)"/>
      <path id="Path_43" data-name="Path 43" d="M27.016,23.5a2.079,2.079,0,0,0,.061-.679c0-.314-.052-.562-.112-.576a2.519,2.519,0,0,0-1.8.37,3.015,3.015,0,0,0-1.372,2.144,10.414,10.414,0,0,0-.075,1.18,3.278,3.278,0,0,0,.468,1.568,3.367,3.367,0,0,0,5.787,0,3.277,3.277,0,0,0,.468-1.568,10.376,10.376,0,0,0-.07-1.185A3.029,3.029,0,0,0,29,22.6a2.538,2.538,0,0,0-1.8-.379c-.07,0-.122.323-.117.684a1.821,1.821,0,0,0,.047.6,1.793,1.793,0,0,1,.707.548,1.283,1.283,0,0,1,.267.89c0,.1-.042.693-.07.819a.988.988,0,0,1-1.943,0c-.028-.131-.052-.726-.07-.824a1.3,1.3,0,0,1,.272-.9A1.812,1.812,0,0,1,27.016,23.5Z" transform="translate(-15.615 -12.633)"/>
    </g>
  </g>
</svg>
