<svg width="100" height="84" viewBox="0 0 100 84" fill="none" xmlns="http://www.w3.org/2000/svg">
<path d="M75 0L100 41.667L75 83.333H25L0 41.667L25 0H75Z" fill="white"/>
<path d="M25.5662 1L1.16619 41.6667L25.5662 82.3333H74.4338L98.8338 41.6667L74.4338 1H25.5662ZM25 0H75L100 41.6667L75 83.3333H25L0 41.6667L25 0Z" fill="#DFE9EB"/>
<path d="M69.137 42.195C68.4515 41.7169 67.6316 41.4693 66.796 41.488C65.9876 41.5098 65.2065 41.7851 64.563 42.275C64.4093 42.3928 64.2639 42.5211 64.128 42.659L63.838 42.959L63.276 43.554L62.185 44.71L60.172 46.864C59.4853 47.61 58.861 48.3047 58.299 48.948C58.2515 48.7774 58.192 48.6103 58.121 48.448C57.8448 47.8156 57.4099 47.2652 56.8586 46.8502C56.3073 46.4352 55.6581 46.1695 54.974 46.079C54.805 46.079 54.623 46.051 54.459 46.042H51.918C48.074 46.042 44.23 46.094 40.868 46.201H40.245C40.0055 46.2061 39.7664 46.2248 39.529 46.257C39.0687 46.3164 38.6154 46.4216 38.176 46.571C37.006 46.9637 35.9642 47.6659 35.161 48.603L34.552 49.303C34.168 49.771 33.822 50.174 33.522 50.548C33.438 50.656 33.583 50.948 33.845 51.199C34.107 51.45 34.313 51.536 34.43 51.457C34.805 51.157 35.221 50.811 35.675 50.427L36.375 49.818C36.5942 49.621 36.8282 49.4411 37.075 49.28C37.5913 48.9412 38.1614 48.6927 38.761 48.545C39.0789 48.4682 39.4033 48.4213 39.73 48.405H40.858C44.22 48.513 48.064 48.564 51.908 48.564H54.427L54.627 48.601C54.8823 48.631 55.1259 48.7253 55.3347 48.8752C55.5436 49.0251 55.7109 49.2257 55.821 49.458C55.9351 49.6909 55.9892 49.9486 55.9786 50.2077C55.9679 50.4669 55.8928 50.7192 55.76 50.942C55.6302 51.1595 55.4513 51.3435 55.2375 51.4793C55.0237 51.6152 54.781 51.6989 54.529 51.724L52.16 51.824L49.945 51.924C48.564 52.008 47.365 52.102 46.41 52.21C46.279 52.21 46.176 52.528 46.185 52.884C46.194 53.24 46.293 53.451 46.41 53.465C47.346 53.573 48.564 53.671 49.945 53.751L52.145 53.863L53.33 53.91H54.618C55.237 53.8928 55.8429 53.7279 56.3853 53.429C56.9277 53.1302 57.3908 52.7061 57.736 52.192C57.9946 51.8092 58.1816 51.3826 58.288 50.933C59.201 50.133 60.25 49.187 61.43 48.124L63.588 46.115L64.744 45.024L65.339 44.462L65.639 44.176C65.7025 44.1206 65.7693 44.0692 65.839 44.022C66.1255 43.8281 66.4652 43.7285 66.811 43.7369C67.1568 43.7453 67.4913 43.8614 67.768 44.069C68.0435 44.2835 68.2435 44.5802 68.339 44.916C68.4297 45.2577 68.4051 45.6197 68.269 45.946C68.2032 46.1072 68.1079 46.2547 67.988 46.381C67.951 46.418 67.946 46.433 67.88 46.493L67.733 46.679L67.391 47.011L66.018 48.361L63.246 51.105L57.693 56.663L57.028 57.328C56.8401 57.5132 56.6396 57.6853 56.428 57.843C56.0049 58.1559 55.5418 58.4109 55.051 58.601C54.5665 58.7891 54.0596 58.9135 53.543 58.971C53.417 58.971 53.285 58.999 53.159 58.999H51.818C46.953 59.069 42.552 59.186 39.176 59.345H39.106C38.9013 59.3548 38.7084 59.4438 38.568 59.593C36.939 61.316 36.021 62.346 35.291 63.217C35.155 63.372 35.263 63.685 35.525 63.938C35.787 64.191 36.04 64.224 36.18 64.102C37.004 63.395 37.973 62.529 39.523 61.068C42.861 61.218 47.136 61.33 51.851 61.396H53.218C53.3995 61.4007 53.581 61.3913 53.761 61.368C55.2482 61.2535 56.6774 60.7424 57.9 59.888C58.2084 59.6683 58.5011 59.4273 58.776 59.167L59.146 58.806L59.492 58.464L65.054 52.916L67.798 50.144L69.137 48.772L69.469 48.43L69.633 48.261C69.684 48.209 69.778 48.102 69.848 48.027C70.1462 47.6824 70.3808 47.2876 70.541 46.861C70.8664 46.0366 70.9053 45.1268 70.6514 44.2777C70.3975 43.4285 69.8656 42.6894 69.141 42.179L69.137 42.195Z" fill="black"/>
<path d="M30.351 32.704L30.515 32.985L31.142 34.057L32.078 35.63L30.852 37.943L30.52 38.584C30.2104 39.166 30.1418 39.8463 30.3288 40.4785C30.5158 41.1106 30.9436 41.6441 31.52 41.964L31.72 42.064L31.86 42.12L32.127 42.232L33.143 42.653L34.96 43.379C35.194 43.473 35.503 43.279 35.634 42.948C35.6977 42.8321 35.7181 42.6974 35.6915 42.5678C35.6649 42.4383 35.5932 42.3224 35.489 42.241L33.775 41.328L32.8 40.819L32.542 40.688L32.392 40.636L32.326 40.594C32.2405 40.534 32.166 40.4595 32.106 40.374C31.9807 40.1959 31.9287 39.9764 31.961 39.761C31.9793 39.6541 32.0191 39.552 32.078 39.461L32.443 38.843L34.054 36.099C34.1362 35.9567 34.1794 35.7953 34.1794 35.631C34.1794 35.4667 34.1362 35.3053 34.054 35.163V35.119L32.968 33.036L32.392 31.936L32.247 31.66C32.2323 31.6248 32.2199 31.5888 32.21 31.552C32.1956 31.4777 32.1956 31.4013 32.21 31.327C32.2195 31.2516 32.2439 31.1789 32.2817 31.113C32.3194 31.0471 32.3698 30.9893 32.43 30.943C32.5398 30.8717 32.6576 30.8136 32.781 30.77L33.422 30.484L36.114 29.276C36.2929 29.1952 36.4483 29.0702 36.5655 28.9127C36.6827 28.7553 36.7579 28.5705 36.784 28.376V28.348L37.121 25.857L37.29 24.585V24.505C37.289 24.494 37.289 24.483 37.29 24.472C37.2884 24.458 37.2884 24.4439 37.29 24.43C37.2985 24.4024 37.3096 24.3756 37.323 24.35C37.3499 24.2998 37.3862 24.2553 37.43 24.219C37.4737 24.182 37.5243 24.1542 37.5789 24.137C37.6335 24.1198 37.691 24.1137 37.748 24.119L38.254 24.219L38.919 24.355L41.625 24.898C41.8363 24.9398 42.0548 24.927 42.2597 24.8606C42.4647 24.7943 42.6493 24.6767 42.796 24.519L44.585 22.619L45.47 21.683C45.5056 21.6457 45.5485 21.6162 45.5959 21.596C45.6434 21.5759 45.6945 21.5657 45.746 21.566C45.798 21.5647 45.8497 21.5739 45.898 21.5932C45.9463 21.6124 45.9902 21.6413 46.027 21.678L46.893 22.614L48.705 24.548C48.8532 24.7045 49.0389 24.8208 49.2445 24.8857C49.45 24.9506 49.6688 24.962 49.88 24.919L52.525 24.39L53.738 24.147C53.7933 24.1395 53.8495 24.143 53.9034 24.1575C53.9573 24.1719 54.0078 24.1969 54.052 24.231C54.1002 24.2679 54.1401 24.3144 54.1692 24.3676C54.1983 24.4208 54.2159 24.4795 54.221 24.54L54.39 25.831L54.727 28.373V28.401C54.75 28.603 54.8251 28.7955 54.945 28.9596C55.065 29.1237 55.2256 29.2538 55.411 29.337L57.967 30.489L58.594 30.77L58.903 30.91L58.992 30.952L59.039 30.98C59.1621 31.041 59.2575 31.1464 59.306 31.275C59.3204 31.3476 59.3204 31.4224 59.306 31.495C59.2998 31.5317 59.2904 31.5678 59.278 31.603V31.659L59.203 31.804L58.603 32.932L57.432 35.104L57.409 35.151C57.3334 35.2962 57.2959 35.4583 57.3 35.622C57.304 35.7856 57.3494 35.9456 57.432 36.087L58.932 38.625L59.307 39.234L59.396 39.379L59.457 39.487C59.485 39.5306 59.5071 39.5777 59.523 39.627C59.5891 39.829 59.574 40.0488 59.481 40.24C59.4357 40.3342 59.3721 40.4185 59.294 40.488C59.1873 40.5792 59.0673 40.6534 58.938 40.708L57.903 41.242L56.06 42.219C55.943 42.3154 55.8668 42.4525 55.8468 42.6028C55.8268 42.753 55.8643 42.9053 55.952 43.029C56.0003 43.1561 56.0924 43.2619 56.2118 43.3271C56.3311 43.3924 56.4699 43.4129 56.603 43.385L58.537 42.603L59.609 42.158C59.8579 42.0628 60.0933 41.9354 60.309 41.779C60.5623 41.5969 60.7785 41.3682 60.946 41.105C61.294 40.531 61.4017 39.8429 61.246 39.19C61.2065 39.0284 61.1498 38.8715 61.077 38.722L61.021 38.605L60.979 38.525L60.899 38.37L60.59 37.756L59.504 35.63L60.469 33.977L61.11 32.877L61.19 32.737L61.312 32.503C61.3859 32.3372 61.4438 32.1648 61.485 31.988C61.6108 31.4414 61.5702 30.8697 61.3683 30.3464C61.1663 29.8232 60.8124 29.3723 60.352 29.052C60.2746 28.9964 60.1934 28.9463 60.109 28.902L59.894 28.79L59.585 28.64L58.967 28.34L57.052 27.404L56.841 25.504L56.696 24.204C56.6112 23.4326 56.224 22.7264 55.6192 22.2401C55.0145 21.7538 54.2416 21.5272 53.47 21.61L53.222 21.662L53.058 21.695L52.73 21.756L52.07 21.882L50.122 22.252L48.802 20.852L48.334 20.384L48.109 20.141L47.99 20.019L47.934 19.958L47.834 19.858C47.5547 19.583 47.2236 19.3662 46.8599 19.2201C46.4963 19.0739 46.1072 19.0013 45.7153 19.0065C45.3234 19.0118 44.9364 19.0946 44.5768 19.2504C44.2171 19.4062 43.8919 19.6317 43.62 19.914L42.684 20.897L41.384 22.297L39.371 21.913L38.706 21.787C38.4355 21.7287 38.1621 21.685 37.887 21.656C37.2233 21.6183 36.5668 21.8092 36.0268 22.1968C35.4867 22.5843 35.0958 23.1452 34.919 23.786C34.8948 23.8768 34.8761 23.9689 34.863 24.062V24.273L34.72 25.55L34.514 27.419L32.435 28.419L31.803 28.719C31.686 28.78 31.634 28.799 31.433 28.906C31.2655 28.9959 31.1085 29.1043 30.965 29.229C30.5486 29.5883 30.248 30.0629 30.1014 30.593C29.9547 31.1231 29.9685 31.6848 30.141 32.207C30.1957 32.3787 30.266 32.5451 30.351 32.704V32.704Z" fill="black"/>
<path d="M41.626 40.846C41.888 41.046 42.094 41.169 42.15 41.146C44.482 39.517 49.45 33.018 50.414 30.34C50.2883 30.1564 50.1296 29.9977 49.946 29.872C49.684 29.666 49.478 29.558 49.436 29.582C47.09 31.205 42.117 37.695 41.158 40.35C41.106 40.411 41.326 40.64 41.626 40.846Z" fill="black"/>
<path d="M48.381 42.312C49.1493 42.7553 50.0613 42.8779 50.9194 42.6533C51.7775 42.4286 52.5125 41.8749 52.965 41.112C53.251 40.6373 53.4121 40.0978 53.433 39.544C53.4323 39.148 53.4089 38.7523 53.363 38.359C53.3055 37.9221 53.1534 37.5031 52.9173 37.1311C52.6812 36.759 52.3668 36.443 51.996 36.205C51.4645 35.858 50.8223 35.7228 50.196 35.826C50.126 35.826 50.074 36.149 50.079 36.51C50.0658 36.712 50.0865 36.9148 50.14 37.11C50.4182 37.23 50.6614 37.4185 50.847 37.658C51.0441 37.9109 51.1393 38.2284 51.114 38.548C51.114 38.648 51.072 39.241 51.044 39.367C51.002 39.594 50.8818 39.7991 50.7044 39.9467C50.5269 40.0943 50.3033 40.1752 50.0725 40.1752C49.8417 40.1752 49.6181 40.0943 49.4406 39.9467C49.2632 39.7991 49.143 39.594 49.101 39.367C49.073 39.236 49.049 38.641 49.031 38.543C49.0062 38.2196 49.1032 37.8985 49.303 37.643C49.4912 37.4014 49.7375 37.2115 50.019 37.091C50.0715 36.8752 50.089 36.6524 50.071 36.431C50.071 36.117 50.019 35.869 49.959 35.855C49.3338 35.7473 48.691 35.8794 48.159 36.225C47.7878 36.4607 47.4727 36.7747 47.2357 37.1451C46.9986 37.5155 46.8455 37.9332 46.787 38.369C46.7397 38.7606 46.7146 39.1545 46.712 39.549C46.7329 40.1028 46.8939 40.6423 47.18 41.117C47.4706 41.6132 47.8838 42.0264 48.38 42.317L48.381 42.312Z" fill="black"/>
<path d="M41.401 29.867C41.4586 29.6456 41.4792 29.4161 41.462 29.188C41.462 28.874 41.41 28.626 41.35 28.612C40.7248 28.5043 40.082 28.6364 39.55 28.982C39.1788 29.2177 38.8637 29.5317 38.6267 29.9021C38.3896 30.2725 38.2365 30.6902 38.178 31.126C38.1307 31.5176 38.1056 31.9116 38.103 32.306C38.1239 32.8598 38.285 33.3993 38.571 33.874C38.8694 34.3754 39.293 34.7908 39.8002 35.0792C40.3075 35.3676 40.881 35.5193 41.4645 35.5193C42.048 35.5193 42.6215 35.3676 43.1288 35.0792C43.636 34.7908 44.0596 34.3754 44.358 33.874C44.6441 33.3993 44.8051 32.8598 44.826 32.306C44.8253 31.91 44.8019 31.5143 44.756 31.121C44.6981 30.6838 44.5454 30.2645 44.3086 29.8925C44.0718 29.5204 43.7566 29.2046 43.385 28.967C42.8535 28.62 42.2113 28.4848 41.585 28.588C41.515 28.588 41.463 28.911 41.468 29.272C41.4503 29.4732 41.4662 29.676 41.515 29.872C41.7932 29.992 42.0364 30.1805 42.222 30.42C42.4191 30.6729 42.5143 30.9904 42.489 31.31C42.489 31.41 42.447 32.003 42.419 32.129C42.377 32.356 42.2568 32.5611 42.0794 32.7087C41.9019 32.8563 41.6783 32.9372 41.4475 32.9372C41.2167 32.9372 40.9931 32.8563 40.8156 32.7087C40.6382 32.5611 40.518 32.356 40.476 32.129C40.448 31.998 40.424 31.403 40.406 31.305C40.3812 30.9816 40.4782 30.6605 40.678 30.405C40.8698 30.1676 41.1185 29.9826 41.401 29.867V29.867Z" fill="black"/>
</svg>
