<svg xmlns="http://www.w3.org/2000/svg" width="100" height="90" viewBox="0 0 100 90">
  <g id="icon-calendar" transform="translate(-631 -841)">
    <g id="Polygon_4" data-name="Polygon 4" transform="translate(631 841)" fill="#962932">
      <path d="M 74.70579528808594 89.5 L 25.2942066192627 89.5 L 0.5719836950302124 45 L 25.2942066192627 0.5 L 74.70579528808594 0.5 L 99.42801666259766 45 L 74.70579528808594 89.5 Z" stroke="none"/>
      <path d="M 25.58841705322266 1 L 1.143959045410156 45 L 25.58840179443359 89 L 74.41159820556641 89 L 98.85604095458984 45 L 74.41159820556641 1 L 25.58841705322266 1 M 25.00001525878906 0 L 75 0 L 100 45 L 75 90 L 25 90 L 0 45 L 25.00001525878906 0 Z" stroke="none" fill="#dfe9eb"/>
    </g>
    <g id="noun_Calendar_3076015" transform="translate(658 866)">
      <g id="Group_24" data-name="Group 24" transform="translate(0 0)">
        <path id="Path_45" data-name="Path 45" d="M13.643,3.168a1.1,1.1,0,0,0-1.082,1.114v3.29a1.1,1.1,0,0,1-2.195,0V5.38H4.882A3.308,3.308,0,0,0,1.588,8.669V37.206a5.5,5.5,0,0,0,5.484,5.485H42.193a5.5,5.5,0,0,0,5.489-5.485V35.011a1.1,1.1,0,0,0-1.1-1.1H43.291V8.669A3.308,3.308,0,0,0,40,5.38H36.708v-1.1a1.1,1.1,0,1,0-2.195,0v3.29a1.1,1.1,0,0,1-2.2,0V5.38H25.731v-1.1a1.1,1.1,0,1,0-2.2,0v3.29a1.1,1.1,0,1,1-2.191,0V5.38H14.757v-1.1a1.1,1.1,0,0,0-1.114-1.114ZM3.783,15.255H41.095V33.914H11.463a1.1,1.1,0,0,0-1.1,1.1v2.195a3.291,3.291,0,0,1-6.583,0Zm13.169,3.292a1.1,1.1,0,1,0,1.1,1.1A1.1,1.1,0,0,0,16.952,18.548Zm5.487,0a1.1,1.1,0,1,0,1.1,1.1A1.1,1.1,0,0,0,22.439,18.548Zm5.487,0a1.1,1.1,0,1,0,1.1,1.1,1.1,1.1,0,0,0-1.1-1.1Zm5.487,0a1.1,1.1,0,1,0,1.1,1.1A1.1,1.1,0,0,0,33.414,18.548Zm-21.95,5.487a1.1,1.1,0,1,0,1.1,1.1,1.1,1.1,0,0,0-1.1-1.1Zm5.487,0a1.1,1.1,0,1,0,1.1,1.1,1.1,1.1,0,0,0-1.1-1.1Zm5.487,0a1.1,1.1,0,1,0,1.1,1.1,1.1,1.1,0,0,0-1.1-1.1Zm5.487,0a1.1,1.1,0,1,0,1.1,1.1,1.1,1.1,0,0,0-1.1-1.1Zm5.487,0a1.1,1.1,0,1,0,1.1,1.1,1.1,1.1,0,0,0-1.1-1.1Zm-21.95,5.487a1.1,1.1,0,1,0,1.1,1.1,1.1,1.1,0,0,0-1.1-1.1Zm5.487,0a1.1,1.1,0,1,0,1.1,1.1A1.1,1.1,0,0,0,16.952,29.523Zm5.487,0a1.1,1.1,0,1,0,1.1,1.1A1.1,1.1,0,0,0,22.439,29.523Zm5.487,0a1.1,1.1,0,1,0,1.1,1.1A1.1,1.1,0,0,0,27.927,29.523Zm5.487,0a1.1,1.1,0,1,0,1.1,1.1A1.1,1.1,0,0,0,33.414,29.523Z" transform="translate(-1.588 -3.168)" fill="#fff"/>
      </g>
    </g>
  </g>
</svg>
