<svg xmlns="http://www.w3.org/2000/svg" width="141.433" height="50.579" viewBox="0 0 141.433 50.579">
  <g id="svgg" transform="translate(0.5 0.108)">
    <path id="path3" d="M42.481.17v.17l-.512.037C41.687.4,41.3.44,41.1.47a5.4,5.4,0,0,1-.7.056,5.378,5.378,0,0,0-1.627.36,2.883,2.883,0,0,1-.907.169c-1.569.132-1.772.178-2.027.46a.411.411,0,0,1-.29.123,12.752,12.752,0,0,0-1.793.389A18.823,18.823,0,0,1,31.89,2.4a1.861,1.861,0,0,0-.994.334,2.011,2.011,0,0,1-.7.283,3.669,3.669,0,0,0-.822.318,2.816,2.816,0,0,1-.661.275l-.566.142A2.251,2.251,0,0,0,27.636,4a3.179,3.179,0,0,1-.661.3,1.075,1.075,0,0,0-.521.295,1.534,1.534,0,0,1-.71.37,2.8,2.8,0,0,0-.7.319,2.43,2.43,0,0,1-.577.3,1.2,1.2,0,0,0-.522.308,1.124,1.124,0,0,1-.4.281,3.929,3.929,0,0,0-.619.368,3.6,3.6,0,0,1-.585.351.986.986,0,0,0-.365.259.889.889,0,0,1-.329.245,1.075,1.075,0,0,0-.366.279,2.047,2.047,0,0,1-.481.385,4.57,4.57,0,0,0-.593.429,2.583,2.583,0,0,1-.423.313.741.741,0,0,0-.272.269,1.06,1.06,0,0,1-.325.323,1.26,1.26,0,0,0-.344.327,1.031,1.031,0,0,1-.291.29,1.06,1.06,0,0,0-.3.3,1.348,1.348,0,0,1-.331.337,1.328,1.328,0,0,0-.345.379,1.1,1.1,0,0,1-.258.317,1.68,1.68,0,0,0-.321.382,4.332,4.332,0,0,1-.415.531,2.026,2.026,0,0,0-.327.468,1.5,1.5,0,0,1-.277.4,1.8,1.8,0,0,0-.334.614,2.358,2.358,0,0,1-.321.624,1.975,1.975,0,0,0-.292.585,3.385,3.385,0,0,1-.3.664,5.529,5.529,0,0,0,.037,3.933,1.633,1.633,0,0,1,.269.472,1.008,1.008,0,0,0,.256.4,2.306,2.306,0,0,1,.382.531,1.64,1.64,0,0,0,.52.606c.291.215.615.489,1.232,1.042a2.411,2.411,0,0,0,.523.326,2.519,2.519,0,0,1,.481.279,1.784,1.784,0,0,0,.8.323,1.339,1.339,0,0,1,.468.258,1.715,1.715,0,0,0,.814.436,2.53,2.53,0,0,1,.555.255,3.949,3.949,0,0,0,1.344.42,2.436,2.436,0,0,1,.633.241,3.452,3.452,0,0,0,.926.3,3.762,3.762,0,0,1,.772.224,2.041,2.041,0,0,0,.941.353,11.1,11.1,0,0,1,1.693.411,8.333,8.333,0,0,0,1.3.266c.951.126.969.131,1.311.363a3.683,3.683,0,0,0,1.494.388,2.4,2.4,0,0,1,.644.206,6.042,6.042,0,0,0,1.777.39,2.247,2.247,0,0,1,.829.24,4.064,4.064,0,0,0,.989.314,1.771,1.771,0,0,1,.882.317,1.212,1.212,0,0,0,.415.228l.59.149a2.3,2.3,0,0,1,.62.264,1.653,1.653,0,0,0,.42.213,3.54,3.54,0,0,1,1.425,1.2,1.713,1.713,0,0,1-.059,1.738,1.068,1.068,0,0,0-.248.357c-.106.265-.185.336-.429.388a1.2,1.2,0,0,0-.409.229,3,3,0,0,1-.63.358.968.968,0,0,0-.5.336.446.446,0,0,1-.24.2c-.615.14-.836.228-1.01.406-.159.161-.266.206-.67.281a2.517,2.517,0,0,0-1.128.446,1.428,1.428,0,0,1-.527.185c-.464.08-.661.176-.827.4a.607.607,0,0,1-.308.211,2.138,2.138,0,0,0-.869.472.817.817,0,0,1-.305.2,1.032,1.032,0,0,0-.5.438c0,.041-.087.141-.194.223a1.345,1.345,0,0,0-.362.548,2.973,2.973,0,0,1-.307.571,4.305,4.305,0,0,0-.344.556,7.367,7.367,0,0,1-.4.669,1.991,1.991,0,0,0-.259.5,1.263,1.263,0,0,1-.252.427,2.161,2.161,0,0,0-.356.679,1.8,1.8,0,0,1-.332.63,1.7,1.7,0,0,0-.326,1.41c.117.367,1.11.557,2.1.4a11.95,11.95,0,0,1,1.825-.115,3.956,3.956,0,0,0,1.257-.087,3.533,3.533,0,0,1,.965-.126,7.259,7.259,0,0,0,1.142-.136,3.033,3.033,0,0,1,.673-.094,1.9,1.9,0,0,0,1.029-.237c.137-.1.317-.125,1.117-.171,1.419-.083,1.715-.138,2.086-.393.3-.209.319-.212.644-.16a3.612,3.612,0,0,0,1.531-.182c.338-.075.746-.155.907-.177a2.792,2.792,0,0,0,.644-.2,4.154,4.154,0,0,1,1.017-.265,1.948,1.948,0,0,0,.942-.289,1.64,1.64,0,0,1,.68-.252,5.625,5.625,0,0,0,1.34-.448,7.033,7.033,0,0,1,.688-.235,2.081,2.081,0,0,0,.7-.321,1.1,1.1,0,0,1,.57-.237,1.653,1.653,0,0,0,.951-.406,1.97,1.97,0,0,1,.679-.33,2.155,2.155,0,0,0,.7-.339,1.541,1.541,0,0,1,.511-.266,1.472,1.472,0,0,0,.773-.412,1.815,1.815,0,0,1,.45-.295.934.934,0,0,0,.354-.258,1.145,1.145,0,0,1,.4-.288,2.455,2.455,0,0,0,.535-.358,6.18,6.18,0,0,1,.483-.4.9.9,0,0,0,.249-.227c0-.083.25-.282.513-.41a.773.773,0,0,0,.32-.263.723.723,0,0,1,.255-.252,1.266,1.266,0,0,0,.345-.355A1.268,1.268,0,0,1,58,34.873a1.1,1.1,0,0,0,.326-.374,1.148,1.148,0,0,1,.282-.358,2.292,2.292,0,0,0,.486-.886c0-.038.052-.086.114-.106a.827.827,0,0,0,.412-.5.941.941,0,0,1,.241-.375c.215-.233.257-.33.387-.882.112-.479.179-.649.291-.746a1.094,1.094,0,0,0,.344-.867,1.844,1.844,0,0,1,.261-1.015A2.694,2.694,0,0,0,61.2,26.2a1.291,1.291,0,0,1-.316-.837,1.132,1.132,0,0,0-.351-.836,1.022,1.022,0,0,1-.276-.517,1.321,1.321,0,0,0-.463-.725,1.719,1.719,0,0,1-.345-.4c0-.037-.1-.12-.232-.185a2.258,2.258,0,0,1-.455-.338,4.558,4.558,0,0,0-1.4-1.043,1.149,1.149,0,0,1-.433-.23,1.827,1.827,0,0,0-.869-.353,1.11,1.11,0,0,1-.456-.3,1.377,1.377,0,0,0-.66-.378,1.485,1.485,0,0,1-.535-.265,2.451,2.451,0,0,0-1.209-.4.993.993,0,0,1-.579-.212c-.225-.179-.357-.224-1.084-.375a2.248,2.248,0,0,1-.7-.261,3.608,3.608,0,0,0-1.4-.413,2.391,2.391,0,0,1-.628-.178,3.574,3.574,0,0,0-1.411-.347c-.989-.1-1.056-.113-1.283-.327s-.29-.228-1.357-.405a2.254,2.254,0,0,1-.646-.176c-.179-.163-.508-.253-1.48-.408a3.183,3.183,0,0,1-1.258-.327,2.688,2.688,0,0,0-.849-.285,1.454,1.454,0,0,1-.774-.291,1.3,1.3,0,0,0-.45-.239c-.843-.212-1.01-.27-1.192-.415a2.787,2.787,0,0,0-1.02-.4c-.057,0-.142-.1-.205-.24a.663.663,0,0,0-.369-.365.482.482,0,0,1-.329-.36,5.572,5.572,0,0,0-.262-.638l-.193-.4.122-.356c.067-.2.178-.606.245-.912.146-.661.2-.786.383-.869a1.189,1.189,0,0,0,.339-.46,2.565,2.565,0,0,1,.387-.573,1.733,1.733,0,0,0,.3-.388.994.994,0,0,1,.322-.337.716.716,0,0,0,.3-.357.417.417,0,0,1,.292-.3,1.868,1.868,0,0,0,.491-.324,3.381,3.381,0,0,1,.566-.4,2.012,2.012,0,0,0,.463-.343.858.858,0,0,1,.355-.235,1.433,1.433,0,0,0,.45-.266,1.683,1.683,0,0,1,.806-.363,2,2,0,0,0,.794-.336,1.426,1.426,0,0,1,.662-.281c.467-.089.7-.2.828-.394.1-.155.244-.19,1.5-.366a5.412,5.412,0,0,0,.995-.226,11.3,11.3,0,0,1,2.37-.383,2.883,2.883,0,0,0,1.34-.3C50.52,3.2,62.6,3.1,64.83,3.448l.267.041-.351.074A2.459,2.459,0,0,0,63.723,4a1.612,1.612,0,0,1-.683.238c-.718.139-.865.192-1.124.408a1.2,1.2,0,0,1-.717.265,5.033,5.033,0,0,0-1.453.384,3.824,3.824,0,0,1-.765.236,2.13,2.13,0,0,0-1.049.4,2.052,2.052,0,0,1-.741.265,2.14,2.14,0,0,0-1.026.431,2.581,2.581,0,0,1-.69.192,2.737,2.737,0,0,0-1.173.41,1.661,1.661,0,0,1-.47.176c-.545.136-.687.2-.844.388-.114.136-.263.2-.821.342a5.118,5.118,0,0,0-.927.321,3.419,3.419,0,0,1-.661.258c-.487.134-.757.264-.8.385a1.465,1.465,0,0,1-.548.242,2.8,2.8,0,0,0-.724.319,2.231,2.231,0,0,1-.7.3,2.167,2.167,0,0,0-.988.433,1.123,1.123,0,0,1-.405.187,1.606,1.606,0,0,0-.852.46.864.864,0,0,1-.53.263,1.885,1.885,0,0,0-.835.355,2.3,2.3,0,0,1-.539.227,1.8,1.8,0,0,0-.675.356,1.076,1.076,0,0,1-.357.233,2.3,2.3,0,0,0-.841.386,2.773,2.773,0,0,1-.467.3c-.468.241-.559.439-.308.666a.7.7,0,0,0,.271.172,1.752,1.752,0,0,1,.682.325,1.851,1.851,0,0,0,1.011.4,3.573,3.573,0,0,1,.849.27,3.918,3.918,0,0,0,1.321.321,5.44,5.44,0,0,1,1.377.318,6.359,6.359,0,0,0,1.235.322c.465.084.933.179,1.039.213a.433.433,0,0,0,.381-.027c.1-.049.309-.141.459-.205a1.239,1.239,0,0,0,.429-.323.908.908,0,0,1,.368-.276,1.6,1.6,0,0,0,.449-.284c.131-.118.37-.31.532-.426a3.725,3.725,0,0,0,.439-.368,1.772,1.772,0,0,1,.409-.292,1.568,1.568,0,0,0,.394-.285A1.112,1.112,0,0,1,53,13.427a1.709,1.709,0,0,0,.426-.286A4.207,4.207,0,0,1,54,12.724a2.16,2.16,0,0,0,.445-.331,1.558,1.558,0,0,1,.429-.278,1.545,1.545,0,0,0,.433-.283.84.84,0,0,1,.254-.2,3.792,3.792,0,0,0,.523-.4,2.952,2.952,0,0,1,.614-.419,1.842,1.842,0,0,0,.442-.277,1.951,1.951,0,0,1,.5-.292,1.774,1.774,0,0,0,.527-.335,2.341,2.341,0,0,1,.469-.353,1.029,1.029,0,0,0,.347-.289.571.571,0,0,1,.353-.224,1.538,1.538,0,0,0,.755-.414,1.367,1.367,0,0,1,.425-.261.945.945,0,0,0,.394-.285A1.281,1.281,0,0,1,61.52,7.7a2.034,2.034,0,0,0,.6-.336.588.588,0,0,1,.23-.17,2.333,2.333,0,0,0,.87-.5,1.015,1.015,0,0,1,.44-.268,1.47,1.47,0,0,0,.489-.285,1.744,1.744,0,0,1,.586-.32,2.336,2.336,0,0,0,.6-.306,2.179,2.179,0,0,1,.53-.294,1.238,1.238,0,0,0,.554-.377.737.737,0,0,1,.424-.288,1.657,1.657,0,0,0,.985-.569,1.526,1.526,0,0,1,.427-.38l.231-.118-.229-.117a2.86,2.86,0,0,1-.553-.451l-.324-.334-.673-.152c-.37-.084-.765-.169-.878-.189a2.791,2.791,0,0,1-.556-.208,3.042,3.042,0,0,0-1.112-.261c-.974-.114-1.206-.17-1.327-.319a1.3,1.3,0,0,0-.9-.322,2.794,2.794,0,0,1-1.344-.3A.722.722,0,0,0,60.239.7a6.228,6.228,0,0,1-.667-.086C59.3.568,58.727.5,58.309.47,56.483.328,56.556.341,56.535.161L56.516,0h-2.04V.169c0,.229.056.244,1.1.3.492.027.939.063.995.081s.43.058.832.09a9.5,9.5,0,0,1,2.132.3,1.778,1.778,0,0,0,.5.113,3.31,3.31,0,0,1,.556.081c.193.045.661.127,1.041.183.585.087.721.128.9.27.247.2.442.255,1.245.375a4.271,4.271,0,0,1,1.3.355,3.748,3.748,0,0,0,.7.174c1.194.206,2.18.767,1.973,1.122a2.663,2.663,0,0,1-1.045.717,1.768,1.768,0,0,0-.528.318,2.566,2.566,0,0,1-.632.381,3.379,3.379,0,0,0-.58.292,2.975,2.975,0,0,1-.546.275,1.923,1.923,0,0,0-.554.349,1.211,1.211,0,0,1-.422.276,1.646,1.646,0,0,0-.455.24,5.414,5.414,0,0,1-.661.387,7.066,7.066,0,0,0-.7.4,3.707,3.707,0,0,1-.52.3,1.249,1.249,0,0,0-.392.323.857.857,0,0,1-.479.325,1.914,1.914,0,0,0-.537.277,3.032,3.032,0,0,1-.529.314,2.225,2.225,0,0,0-.518.346,1.241,1.241,0,0,1-.3.232,1.449,1.449,0,0,0-.33.229,4.45,4.45,0,0,1-.712.444,1.581,1.581,0,0,0-.468.3,1.443,1.443,0,0,1-.437.289,3.169,3.169,0,0,0-.648.44,2.3,2.3,0,0,1-.423.329,2.3,2.3,0,0,0-.371.259,1.786,1.786,0,0,1-.4.254,2.227,2.227,0,0,0-.475.323,4.189,4.189,0,0,1-.57.409,2.17,2.17,0,0,0-.415.3,1.451,1.451,0,0,1-.347.244,2.61,2.61,0,0,0-.444.3c-.116.1-.379.307-.585.46-.484.358-.851.639-1.107.849a4.272,4.272,0,0,1-.482.327,1.1,1.1,0,0,0-.342.279c-.255.477-1.678.523-2.531.081a5.071,5.071,0,0,0-1.561-.412,8.812,8.812,0,0,1-1.112-.263,10.64,10.64,0,0,0-1.192-.288c-.737-.132-.865-.178-1.077-.386a1.791,1.791,0,0,0-.5-.265c-.657-.242-.666-.269-.162-.523a5.653,5.653,0,0,0,.54-.324,3.157,3.157,0,0,1,.559-.3,3.2,3.2,0,0,0,.556-.293,3.666,3.666,0,0,1,.731-.341,3.6,3.6,0,0,0,.706-.323,2.664,2.664,0,0,1,.556-.27,2.478,2.478,0,0,0,.6-.318,1.707,1.707,0,0,1,.817-.4,3.225,3.225,0,0,0,.644-.267,4.715,4.715,0,0,1,.793-.324,2.675,2.675,0,0,0,.667-.3,3.136,3.136,0,0,1,.69-.321,2.515,2.515,0,0,0,.64-.3,2.5,2.5,0,0,1,.8-.319,5.235,5.235,0,0,0,.916-.334,4.29,4.29,0,0,1,.721-.292,1.691,1.691,0,0,0,.644-.322,1.514,1.514,0,0,1,.744-.325,7.1,7.1,0,0,0,.965-.323,5.63,5.63,0,0,1,.916-.295,2.856,2.856,0,0,0,.7-.238A2.814,2.814,0,0,1,57.577,6.4a2.914,2.914,0,0,0,.585-.187L58.557,6a5.172,5.172,0,0,1,.875-.242,5.7,5.7,0,0,0,1.053-.319,4.919,4.919,0,0,1,.939-.294,2.2,2.2,0,0,0,.865-.314,2.281,2.281,0,0,1,1.141-.388,13.292,13.292,0,0,0,2.057-.651A.911.911,0,0,0,65.77,3.6l.128-.137-.187-.1a3.661,3.661,0,0,0-1.1-.15c-.5-.029-1.153-.079-1.443-.111-3.542-.384-12.536-.092-14.365.466-.113.034-.731.126-1.375.2a11.126,11.126,0,0,0-1.9.352c-.4.117-.939.25-1.192.295a1.162,1.162,0,0,0-.8.362,2.154,2.154,0,0,1-.7.283,4.565,4.565,0,0,0-.844.313,5.44,5.44,0,0,1-.782.326,2.009,2.009,0,0,0-.673.335,1.827,1.827,0,0,1-.422.28,2.572,2.572,0,0,0-.465.29A6.621,6.621,0,0,1,39.076,7a1.136,1.136,0,0,0-.34.261,1.084,1.084,0,0,1-.321.261,1.225,1.225,0,0,0-.44.437.844.844,0,0,1-.278.316,3.874,3.874,0,0,0-.978,1.149,2.594,2.594,0,0,1-.355.524,2.579,2.579,0,0,0-.378.644c-.6,1.45-.626,1.87-.145,2.667a2.512,2.512,0,0,1,.2.382,1.055,1.055,0,0,0,.291.221,1.584,1.584,0,0,1,.436.409.646.646,0,0,0,.368.3,3.946,3.946,0,0,1,.6.293,4.406,4.406,0,0,0,.785.346,8.82,8.82,0,0,1,.874.335,6.483,6.483,0,0,0,.9.321,3.579,3.579,0,0,1,.735.279,3.832,3.832,0,0,0,1.119.329c.451.087,1,.218,1.229.291s.554.161.732.2a6.079,6.079,0,0,1,1.726.482,3.43,3.43,0,0,0,1.083.321,8.964,8.964,0,0,1,1.207.293,8.812,8.812,0,0,0,1.112.283,3.789,3.789,0,0,1,1.227.372,6.019,6.019,0,0,0,.843.275,5.154,5.154,0,0,1,.974.361,2.655,2.655,0,0,0,.834.284,3.766,3.766,0,0,1,.959.32,3.481,3.481,0,0,0,.558.237,2.221,2.221,0,0,1,.794.445,1.84,1.84,0,0,0,.514.29,3.733,3.733,0,0,1,.614.292,3.727,3.727,0,0,0,.6.288,3.3,3.3,0,0,1,.844.573c.314.265.7.574.856.687a3.682,3.682,0,0,1,1.2,1.405,1.734,1.734,0,0,0,.274.5,2.041,2.041,0,0,1,.428,1.07,1.907,1.907,0,0,0,.3.79l.206.3-.028.617a1.892,1.892,0,0,1-.139.812l-.184.33a3.991,3.991,0,0,0-.219,1.16.818.818,0,0,1-.268.651,1.779,1.779,0,0,0-.4.817,4.053,4.053,0,0,1-.312.783,2.472,2.472,0,0,0-.224.446,1.351,1.351,0,0,1-.305.439,2.091,2.091,0,0,0-.364.479,3.411,3.411,0,0,1-.376.545,2.99,2.99,0,0,0-.3.4,2.778,2.778,0,0,1-.366.431c-.165.166-.652.662-.652.662s-.507.468-.7.6-7.113,4.082-7.288,4.228a5.027,5.027,0,0,1-1.17.384,3.088,3.088,0,0,0-.591.206,4.6,4.6,0,0,1-.7.25c-.238.063-.747.223-1.13.355a12.8,12.8,0,0,1-2.257.561,4.77,4.77,0,0,0-.848.214,4.2,4.2,0,0,1-1.083.2,8.425,8.425,0,0,0-1.229.2,9.6,9.6,0,0,1-2.194.466c-.386.03-.86.082-1.053.114a5.641,5.641,0,0,1-.76.061,1.538,1.538,0,0,0-.673.124,2.879,2.879,0,0,1-1.024.169,7.6,7.6,0,0,0-.965.106,43.62,43.62,0,0,1-4.476.073c-.479-.116-.559-.378-.253-.829a5.5,5.5,0,0,0,.312-.672,5.967,5.967,0,0,1,.38-.784,4.927,4.927,0,0,0,.3-.558,2.3,2.3,0,0,1,.295-.484,2.588,2.588,0,0,0,.293-.439c.069-.136.222-.392.34-.569a5.17,5.17,0,0,0,.373-.693,3.213,3.213,0,0,1,.351-.614c.106-.134.238-.315.293-.4a1.376,1.376,0,0,1,.447-.336,3.185,3.185,0,0,0,.546-.35,2.162,2.162,0,0,1,.481-.295,2.164,2.164,0,0,0,.5-.315,1.545,1.545,0,0,1,.758-.328,4.646,4.646,0,0,0,.865-.305,4.12,4.12,0,0,1,.756-.283,1.4,1.4,0,0,0,.78-.357,2.271,2.271,0,0,1,.6-.285,1.73,1.73,0,0,0,.618-.321,2.067,2.067,0,0,1,.553-.323,2.182,2.182,0,0,0,.494-.256,4.114,4.114,0,0,1,.439-.291,1.337,1.337,0,0,0,.431-.406,3.143,3.143,0,0,1,.3-.4,2.679,2.679,0,0,0,.245-1.833,4.009,4.009,0,0,0-1.4-1.356c-.177-.088-.415-.221-.529-.295a5.844,5.844,0,0,0-.884-.362,6.185,6.185,0,0,1-.823-.323,3.611,3.611,0,0,0-.713-.237,4.942,4.942,0,0,1-.783-.252,5.143,5.143,0,0,0-1.458-.422c-.361-.067-.822-.174-1.024-.239a9.592,9.592,0,0,0-1.561-.35,2.508,2.508,0,0,1-.947-.286,4.005,4.005,0,0,0-1.429-.384,6.643,6.643,0,0,1-.878-.232,13.882,13.882,0,0,0-1.4-.35,8.906,8.906,0,0,1-1.254-.331,9.045,9.045,0,0,0-1.042-.317,4.144,4.144,0,0,1-.869-.3,4.1,4.1,0,0,0-.794-.295c-.293-.078-.8-.245-1.125-.371s-.7-.257-.835-.291a2.678,2.678,0,0,1-.632-.328,3.559,3.559,0,0,0-.635-.352,3.913,3.913,0,0,1-.591-.3,4.536,4.536,0,0,0-.609-.312,4.154,4.154,0,0,1-1.15-.848,4.673,4.673,0,0,0-.469-.4,3.032,3.032,0,0,1-.774-.825,2.728,2.728,0,0,0-.346-.451,1.148,1.148,0,0,1-.256-.355A4.108,4.108,0,0,0,15,19.189a4.163,4.163,0,0,1-.056-3.1,6.217,6.217,0,0,0,.3-.782,2.1,2.1,0,0,1,.327-.7,2.287,2.287,0,0,0,.321-.594,2.32,2.32,0,0,1,.286-.558,2.244,2.244,0,0,0,.264-.409,3.21,3.21,0,0,1,.417-.576,4.244,4.244,0,0,0,.433-.565.87.87,0,0,1,.231-.284,1.2,1.2,0,0,0,.269-.362,1.115,1.115,0,0,1,.28-.363,7.23,7.23,0,0,0,.759-.7,7.954,7.954,0,0,1,.709-.664c.025,0,.107-.094.184-.209A1.168,1.168,0,0,1,20.091,9a2.73,2.73,0,0,0,.468-.337,5.641,5.641,0,0,1,.506-.4A3.2,3.2,0,0,0,21.5,7.9a1.92,1.92,0,0,1,.442-.323,1.461,1.461,0,0,0,.348-.233,2.252,2.252,0,0,1,.476-.3,3.561,3.561,0,0,0,.589-.368,2.65,2.65,0,0,1,.449-.3,1.913,1.913,0,0,0,.4-.277,1.9,1.9,0,0,1,.532-.292,4.933,4.933,0,0,0,.712-.347,4.631,4.631,0,0,1,.646-.323,2.439,2.439,0,0,0,.567-.324,2.719,2.719,0,0,1,.731-.368,7.791,7.791,0,0,0,.835-.343,4.211,4.211,0,0,1,.731-.275,3.084,3.084,0,0,0,.7-.29,3.729,3.729,0,0,1,.788-.322,8.028,8.028,0,0,0,.931-.331,5.594,5.594,0,0,1,1.528-.372,16.169,16.169,0,0,0,1.754-.377c.38-.115.72-.209.756-.21a1.7,1.7,0,0,0,.694-.256,1.272,1.272,0,0,1,.532-.174,3.906,3.906,0,0,0,.68-.154,2.444,2.444,0,0,1,.643-.118,8.092,8.092,0,0,0,1.8-.275A9.555,9.555,0,0,1,41.9.646c.435-.033.946-.089,1.136-.124A6.058,6.058,0,0,1,44,.476c.759.021,1-.053,1-.308V0H42.481V.17M75.717,16.212c-1.51.068-2.5.262-2.66.519a1.533,1.533,0,0,1-.463.151c-.437.1-.8.27-.8.382a1.972,1.972,0,0,1-.809.376,1.059,1.059,0,0,0-.38.2,4.033,4.033,0,0,1-.537.354,3.031,3.031,0,0,0-.585.435,2.165,2.165,0,0,1-.426.341.557.557,0,0,0-.238.227.838.838,0,0,1-.272.28,1.192,1.192,0,0,0-.318.319,1.224,1.224,0,0,1-.326.324,1.137,1.137,0,0,0-.372.448,2.522,2.522,0,0,1-.336.508.927.927,0,0,0-.238.468.88.88,0,0,1-.341.542,1.167,1.167,0,0,0-.406.688,1.068,1.068,0,0,1-.152.395c-.2,0-.524,1.371-.525,2.242a1.5,1.5,0,0,1-.173.644,6.292,6.292,0,0,0-.009,4.106,2.728,2.728,0,0,1,.234,1.054c.1,1.067.183,1.385.426,1.653a.936.936,0,0,1,.246.478,1.5,1.5,0,0,0,.439.84.836.836,0,0,1,.212.292,1.593,1.593,0,0,0,.264.569,1.321,1.321,0,0,1,.249.313,6.549,6.549,0,0,0,.714.8,9.972,9.972,0,0,1,.745.8,1.549,1.549,0,0,0,.659.512,1.152,1.152,0,0,1,.483.34.835.835,0,0,0,.346.271,1.74,1.74,0,0,1,.459.326,1.266,1.266,0,0,0,.585.324A2.6,2.6,0,0,1,72,39a2.97,2.97,0,0,0,1.253.388c.428.063.517.1.682.262.248.248.437.292,1.693.4.579.049,1.211.116,1.4.148a3.775,3.775,0,0,0,1.293,0,12.56,12.56,0,0,1,1.261-.147c1.187-.1,1.634-.2,1.827-.409.14-.151.388-.231,1.019-.328a1.575,1.575,0,0,0,.715-.259,2.928,2.928,0,0,1,.6-.295,1.331,1.331,0,0,0,.52-.321,1.174,1.174,0,0,1,.347-.262,1.637,1.637,0,0,0,.4-.291,3.773,3.773,0,0,1,.551-.411,2.221,2.221,0,0,0,.519-.462,2.7,2.7,0,0,1,.336-.368,2.354,2.354,0,0,0,.329-.4,5.486,5.486,0,0,1,.415-.529,1.881,1.881,0,0,0,.309-.525,1.666,1.666,0,0,1,.2-.409,1.524,1.524,0,0,0,.358-.7.909.909,0,0,1,.361-.644c.193-.17.2-.2.312-.962.062-.433.141-.872.176-.976.091-.276-.053-.526-.39-.674-.25-.111-.374-.115-2.731-.1-3,.025-2.884-.008-3.064.85a1.859,1.859,0,0,1-.17.511,2.651,2.651,0,0,0-.481.807.569.569,0,0,1-.394.426,2.589,2.589,0,0,0-.542.371,1.407,1.407,0,0,1-.585.329,2.127,2.127,0,0,0-.595.3c-.411.318-.575.344-2.228.344s-2.047-.051-2.317-.3A1.659,1.659,0,0,0,74.55,34a.93.93,0,0,1-.468-.236,2.652,2.652,0,0,0-.575-.376c-.329-.166-.451-.264-.537-.43a1.385,1.385,0,0,0-.317-.376,1.461,1.461,0,0,1-.364-.514,1.452,1.452,0,0,0-.384-.532c-.124-.1-.225-.211-.225-.25a1.685,1.685,0,0,0-.408-.918l-.223-.22-.042-1.023a8.805,8.805,0,0,1,.2-3.2c.088,0,.339-.443.432-.763a1.168,1.168,0,0,1,.3-.521,1.417,1.417,0,0,0,.329-.571c.108-.325.153-.387.357-.491a.907.907,0,0,0,.331-.295.948.948,0,0,1,.4-.321,2.508,2.508,0,0,0,.563-.4,1.3,1.3,0,0,1,.493-.319,1.724,1.724,0,0,0,.46-.227c.3-.217.35-.233,1.026-.334,1.3-.195,4.323-.051,4.323.206a2.105,2.105,0,0,0,.484.313,3.152,3.152,0,0,1,.649.449,1.422,1.422,0,0,0,.41.294.5.5,0,0,1,.321.318,1.934,1.934,0,0,0,.3.472,1.8,1.8,0,0,1,.313.55,1.683,1.683,0,0,0,.854,1.065,39.456,39.456,0,0,0,4.921-.04c.325-.168.316-.056.336-4.064.022-4.217.01-4.391-.319-4.68l-.2-.177-2.265,0a13.3,13.3,0,0,0-2.353.073.83.83,0,0,0-.3.636,4.913,4.913,0,0,1-.12.562l-.061.191-.147-.116a.957.957,0,0,0-.35-.154.6.6,0,0,1-.36-.239,1.234,1.234,0,0,0-.833-.457,1.528,1.528,0,0,1-.5-.207c-.281-.261-.935-.381-2.527-.465a19.885,19.885,0,0,0-2.767,0m26.272,0a4.793,4.793,0,0,0-2.382.465,2.279,2.279,0,0,1-.569.232,1.142,1.142,0,0,0-.594.312,1.44,1.44,0,0,1-.472.3c-.536.193-.73.29-.786.394a.776.776,0,0,1-.3.214,6.217,6.217,0,0,0-.95.754,10.3,10.3,0,0,1-.831.713,1.45,1.45,0,0,0-.335.436,2.655,2.655,0,0,1-.361.511,1.629,1.629,0,0,0-.286.422,1.16,1.16,0,0,1-.325.41.926.926,0,0,0-.325.468,2.226,2.226,0,0,1-.28.515,2.321,2.321,0,0,0-.367,1.1,1.131,1.131,0,0,1-.174.5,2.5,2.5,0,0,0-.486,1.471,3.285,3.285,0,0,1-.209,1.024,4.944,4.944,0,0,0,0,3.444,3.526,3.526,0,0,1,.211,1.024,2.357,2.357,0,0,0,.459,1.386,2.5,2.5,0,0,1,.245.751,2.463,2.463,0,0,0,.264.79,4.271,4.271,0,0,1,.311.552,1.027,1.027,0,0,0,.377.487.629.629,0,0,1,.3.4,1.3,1.3,0,0,0,.269.448,2.383,2.383,0,0,1,.331.434,6.064,6.064,0,0,0,1.271,1.278,4.763,4.763,0,0,1,.512.4,1.4,1.4,0,0,0,.439.288,1.125,1.125,0,0,1,.4.286,1.534,1.534,0,0,0,.527.355,3.185,3.185,0,0,1,.566.294,1.686,1.686,0,0,0,.673.256l.561.1a.935.935,0,0,1,.362.219c.276.261.5.316,1.641.416.547.048,1.167.113,1.378.144a1.712,1.712,0,0,0,.585,0c.111-.029.61-.082,1.109-.118,1.62-.117,1.931-.186,2.217-.492a.644.644,0,0,1,.409-.185,2.479,2.479,0,0,0,1.382-.437,3.673,3.673,0,0,1,.962-.369c.082-.012.159.155.291.632.174.632.013.611,4.7.613,4.49,0,4.233.028,4.58-.472l.172-.248.015-2.082.015-2.083-.177-.306c-.3-.514-.4-.542-1.948-.542h-1.309l-.068-.149c-.112-.245-.1-11.491.017-11.76l.085-.2h2.622l.23-.167a2.642,2.642,0,0,0,.389-.355l.159-.189V19.261c0-2.256-.013-2.33-.4-2.658-.272-.229-.219-.227-4.648-.207l-4.086.018-.167.186a.875.875,0,0,0-.207.468c-.062.429-.181.683-.3.637a3.606,3.606,0,0,0-.359-.1.927.927,0,0,1-.616-.329,1.2,1.2,0,0,0-.753-.375,1.88,1.88,0,0,1-.535-.209c-.622-.4-2.989-.615-5.421-.488m36.044.087a4.383,4.383,0,0,0-1.668.351,3.115,3.115,0,0,1-1.053.328.814.814,0,0,0-.566.3.916.916,0,0,1-.643.32,1.4,1.4,0,0,0-.81.337,3.038,3.038,0,0,1-1.023.421.408.408,0,0,0-.306.2c-.064.127-.074.066-.075-.463,0-.924-.085-1.31-.33-1.525l-.2-.176h-8.4l-.129.137c-.237.252-.261.46-.287,2.437-.028,2.217-.013,2.411.229,2.776l.177.268h1.31c1.477,0,1.914.1,1.978.464.037.21.038,11.244,0,11.369-.063.21-.542.279-1.928.279-1.877,0-1.753-.2-1.753,2.867,0,2.244.015,2.392.271,2.717l.118.15h14.031l.207-.182c.366-.321.392-.519.371-2.815-.028-2.968.257-2.7-2.885-2.738a10.189,10.189,0,0,1-2.56-.129l-.219-.1V28.924c0-2.729-.016-5.02-.035-5.09-.039-.147.024-.17.988-.364a5.13,5.13,0,0,0,.9-.265,5.4,5.4,0,0,1,1.432-.3c1.147-.153,1.312-.193,1.568-.374a7.871,7.871,0,0,1,2.538-.281c1.1-.034,1.156-.041,1.156-.151,0-.235-3.27,0-4.215.3a9.4,9.4,0,0,1-1.926.395,5.919,5.919,0,0,0-1.112.26c-.243.093-.639.226-.881.3-.721.211-.644-.444-.644,5.433,0,4.882.005,5.136.108,5.33.167.312.388.338,2.976.345l2.236.006.163.278.163.278v3.988l-.16.21c-.225.295.015.286-7.534.266l-6.641-.017-.117-.234a19.927,19.927,0,0,1-.058-4.362c.147-.444.123-.437,1.485-.421,1.533.018,1.9-.042,2.062-.336.133-.249.173-11.456.042-11.974-.113-.449-.143-.457-1.889-.49l-1.522-.029-.137-.2-.137-.2.018-1.991c.017-1.907.023-2,.146-2.269l.128-.278h4.148c3.921,0,4.154.006,4.244.105a1.91,1.91,0,0,1,.274,1.268c0,.941.163,1.037.936.555a5.743,5.743,0,0,1,.6-.313,3.618,3.618,0,0,0,.5-.261,3.268,3.268,0,0,1,.6-.264,2.725,2.725,0,0,0,.585-.27,2.487,2.487,0,0,1,1.152-.473c.316-.067.774-.184,1.017-.26a8.19,8.19,0,0,1,2.353-.3c.958-.034,1.039-.045,1.039-.145a6.224,6.224,0,0,0-2.4-.021M79.344,16.5a4.345,4.345,0,0,1,1.112.257c.273.1.626.222.784.261a1.845,1.845,0,0,1,.842.424,2.764,2.764,0,0,0,.468.308,1.83,1.83,0,0,1,.418.292c.269.289.349.2.533-.589a3.171,3.171,0,0,1,.207-.649l.086-.132h2.069c2.5,0,2.406-.014,2.587.374l.139.3v3.522c0,3.662-.019,4.008-.243,4.21a31.545,31.545,0,0,1-4.534.111,2.034,2.034,0,0,1-.928-1.085,2.007,2.007,0,0,0-.308-.6,2.807,2.807,0,0,1-.282-.4,1.071,1.071,0,0,0-.333-.319,3.163,3.163,0,0,1-.424-.32c-.964-.912-1.739-1.136-3.919-1.135a5.426,5.426,0,0,0-2.926.466,6.67,6.67,0,0,1-.6.347,2.842,2.842,0,0,0-.5.32,3.289,3.289,0,0,1-.372.278,4.213,4.213,0,0,0-1.111,1.106,3,3,0,0,1-.292.5,3.025,3.025,0,0,0-.321.6,2.07,2.07,0,0,1-.3.532,1.537,1.537,0,0,0-.346,1.018,4.4,4.4,0,0,1-.088.739,4.288,4.288,0,0,0-.022,1.551c.033.242.08.662.1.936a1.374,1.374,0,0,0,.332.95,2.139,2.139,0,0,1,.258.5,1.861,1.861,0,0,0,.323.542,2.239,2.239,0,0,1,.349.556,1.093,1.093,0,0,0,.329.468,1.9,1.9,0,0,1,.377.392,1.442,1.442,0,0,0,.392.374,4.906,4.906,0,0,1,.528.348,2.773,2.773,0,0,0,.644.352,6.744,6.744,0,0,1,.747.324c1.227.623,4.2.567,5.163-.1a2.777,2.777,0,0,1,.576-.29,2,2,0,0,0,.586-.355,3.071,3.071,0,0,1,.448-.339,1.1,1.1,0,0,0,.328-.4,2.97,2.97,0,0,1,.271-.43,2.183,2.183,0,0,0,.409-.936c.147-.73.154-.731,3.149-.731h2.173l.2.172.2.172-.074.652a2.646,2.646,0,0,1-.375,1.344,3.977,3.977,0,0,0-.288.594,1.335,1.335,0,0,1-.219.41,2.33,2.33,0,0,0-.3.517,7.86,7.86,0,0,1-2.087,2.52,1.649,1.649,0,0,0-.43.345,1.2,1.2,0,0,1-.356.292,2.268,2.268,0,0,0-.435.312,1.507,1.507,0,0,1-.568.306,3.054,3.054,0,0,0-.626.278,3.914,3.914,0,0,1-.926.337,4.3,4.3,0,0,0-.9.318c-.954.6-5.9.581-6.854-.029a2.579,2.579,0,0,0-.8-.286,4.7,4.7,0,0,1-.931-.315,7,7,0,0,0-.794-.329,2.373,2.373,0,0,1-.614-.3,2.937,2.937,0,0,0-.4-.268,2.918,2.918,0,0,1-.448-.331,5.777,5.777,0,0,0-.628-.464A2.831,2.831,0,0,1,69,36.7c-.121-.149-.477-.531-.791-.85a5.878,5.878,0,0,1-.571-.627,1.356,1.356,0,0,0-.213-.3,2.553,2.553,0,0,1-.326-.517,3.253,3.253,0,0,0-.347-.567,2.406,2.406,0,0,1-.343-.662,2.615,2.615,0,0,0-.2-.5,5.44,5.44,0,0,1-.445-1.673,5.632,5.632,0,0,0-.364-1.722,3.5,3.5,0,0,1,0-2.351,5.734,5.734,0,0,0,.366-1.721,5.314,5.314,0,0,1,.384-1.663,4,4,0,0,0,.266-.692c.109-.378.167-.486.336-.614a1.329,1.329,0,0,0,.345-.475,2.39,2.39,0,0,1,.306-.507,1.7,1.7,0,0,0,.264-.486.834.834,0,0,1,.249-.4c.082-.056.4-.352.712-.659a7.26,7.26,0,0,1,.767-.684,2.289,2.289,0,0,0,.38-.311,2.2,2.2,0,0,1,.5-.349,3.914,3.914,0,0,0,.545-.342,2.387,2.387,0,0,1,.607-.306,1.584,1.584,0,0,0,.619-.356,1.11,1.11,0,0,1,.358-.252,8.062,8.062,0,0,0,1.235-.33,17.168,17.168,0,0,1,5.705-.284m25.37-.062a7.582,7.582,0,0,1,2.07.32,6.782,6.782,0,0,0,1.1.324,1.531,1.531,0,0,1,.51.289,2.332,2.332,0,0,0,.6.352,3.438,3.438,0,0,1,.558.269c.279.183.4.087.543-.426.187-.679.245-.764.565-.833.6-.129,7.987-.081,8.121.053.343.343.354.422.354,2.513v1.931l-.212.206-.213.207-1.35.015-1.349.016-.12.2c-.119.2-.12.271-.136,6.148l-.015,5.943.135.2.135.2,1.314.029c1.449.032,1.4.021,1.642.4l.17.268V37c0,2.117-.007,2.159-.379,2.4-.183.119-7.587.144-8.095.027-.33-.076-.492-.286-.565-.736-.083-.5-.282-.627-.6-.371a2.349,2.349,0,0,1-.6.3,3.533,3.533,0,0,0-.651.3,2.189,2.189,0,0,1-.731.261,3.131,3.131,0,0,0-.68.2l-.439.231a14.323,14.323,0,0,1-5.028.23,2.081,2.081,0,0,1-1.088-.367,3.338,3.338,0,0,0-.731-.282,3.849,3.849,0,0,1-.771-.293,6.24,6.24,0,0,0-.7-.322,2.2,2.2,0,0,1-.631-.374.939.939,0,0,0-.343-.23,1.405,1.405,0,0,1-.426-.31,4.854,4.854,0,0,0-.479-.4A5.969,5.969,0,0,1,94.921,36a2.238,2.238,0,0,0-.335-.436,1.192,1.192,0,0,1-.24-.322,3.189,3.189,0,0,0-.38-.51,2.34,2.34,0,0,1-.377-.614c-.085-.209-.217-.5-.294-.654a6.683,6.683,0,0,1-.312-.871,2.331,2.331,0,0,0-.316-.75c-.236-.253-.278-.391-.336-1.106a7.574,7.574,0,0,0-.3-1.768,2.933,2.933,0,0,1-.025-1.521,9.806,9.806,0,0,0,.321-1.826c.072-.777.1-.868.341-1.171a1.9,1.9,0,0,0,.3-.73,6.381,6.381,0,0,1,.38-1.04c.14-.291.287-.628.326-.75a.824.824,0,0,1,.246-.351,2,2,0,0,0,.379-.466,1.231,1.231,0,0,1,.253-.337,1.95,1.95,0,0,0,.317-.432,2.762,2.762,0,0,1,.46-.577c.1-.08.441-.376.746-.658a8.6,8.6,0,0,1,.907-.736c.193-.123.423-.28.511-.348a2.886,2.886,0,0,1,.527-.273,2.423,2.423,0,0,0,.612-.375,1.239,1.239,0,0,1,.41-.263,5.412,5.412,0,0,0,1.018-.321,12.6,12.6,0,0,1,4.651-.348m-1.262,4.682c-2.174.484-2.007.436-2.242.637a3.664,3.664,0,0,1-.479.324,3.077,3.077,0,0,0-.468.326c-.1.088-.305.258-.464.377a5.685,5.685,0,0,0-1.117,1.392,6.254,6.254,0,0,1-.413.552.813.813,0,0,0-.177.307c-.018.083-.1.388-.181.678a8.716,8.716,0,0,0,.033,5.032c.14.547.2.675.37.849a2.193,2.193,0,0,1,.338.468,3.577,3.577,0,0,0,.347.527c.117.145.285.375.372.511a1.356,1.356,0,0,0,.32.348,3.855,3.855,0,0,1,.4.318,3.559,3.559,0,0,0,.673.427,5.194,5.194,0,0,1,.619.349,2.07,2.07,0,0,0,.585.239c.218.055.594.166.835.247a4.383,4.383,0,0,0,3.143-.061,4.66,4.66,0,0,0,1.525-.52,2.8,2.8,0,0,1,.619-.307,1.627,1.627,0,0,0,.511-.276,1.873,1.873,0,0,1,.439-.282,1.186,1.186,0,0,0,.413-.329,3.746,3.746,0,0,1,.4-.437l.234-.212.017-4.485.017-4.485-.368-.353a3.543,3.543,0,0,0-.59-.469,2.582,2.582,0,0,1-.439-.31,3.553,3.553,0,0,0-.63-.4,2.518,2.518,0,0,1-.482-.291c-.312-.375-3.329-.872-4.166-.686m1.609.379c1.519.147,2.08.256,2.282.442a2.654,2.654,0,0,0,.569.339,2.507,2.507,0,0,1,.585.362,1.855,1.855,0,0,0,.427.294,1.119,1.119,0,0,1,.368.288,1.09,1.09,0,0,0,.35.282l.217.1.017,4.242c.019,4.773.023,4.7-.24,4.859a.984.984,0,0,0-.3.357c-.1.21-.16.258-.424.343a2.257,2.257,0,0,0-.577.31,2.088,2.088,0,0,1-.582.3,2.063,2.063,0,0,0-.564.283c-.342.261-.354.264-1.452.435a5.846,5.846,0,0,1-2.44.08c-.348-.065-.764-.137-.925-.159a1.312,1.312,0,0,1-.823-.346A2.338,2.338,0,0,0,101,34a2.006,2.006,0,0,1-.51-.3,3.776,3.776,0,0,0-.52-.359.936.936,0,0,1-.47-.5,2.34,2.34,0,0,0-.379-.539,1.859,1.859,0,0,1-.34-.489.723.723,0,0,0-.3-.366.348.348,0,0,1-.209-.282c-.017-.1-.071-.416-.12-.692a5.837,5.837,0,0,1-.089-.69,8.135,8.135,0,0,0-.151-.92l-.151-.732.124-.538a8.2,8.2,0,0,0,.154-.889,3.535,3.535,0,0,1,.5-1.907.676.676,0,0,0,.225-.338.807.807,0,0,1,.255-.375,3.778,3.778,0,0,0,.46-.573,2.485,2.485,0,0,1,.617-.63,2.367,2.367,0,0,0,.443-.385,1.253,1.253,0,0,1,.406-.257,1.466,1.466,0,0,0,.468-.32.459.459,0,0,1,.317-.181c.328-.056,1.77-.264,2.008-.289a4.976,4.976,0,0,1,1.317.047M20.786,27.56a.877.877,0,0,0-.718.429.984.984,0,0,1-.325.3,1.138,1.138,0,0,0-.355.336c-.077.121-.167.221-.2.221a4.748,4.748,0,0,0-1.052,1.094.314.314,0,0,1-.21.219,3.471,3.471,0,0,0-1.014,1.022.645.645,0,0,1-.3.3.807.807,0,0,0-.338.336.724.724,0,0,1-.266.291.749.749,0,0,0-.268.265,1.753,1.753,0,0,1-.345.38.923.923,0,0,0-.269.317,1.734,1.734,0,0,1-.341.435,6.525,6.525,0,0,0-.938,1.071,5.541,5.541,0,0,1-.468.6,4.061,4.061,0,0,0-.837,1.08.857.857,0,0,1-.284.363.969.969,0,0,0-.3.315,4.223,4.223,0,0,1-.387.5,2.582,2.582,0,0,0-.364.541,1.341,1.341,0,0,1-.282.405.965.965,0,0,0-.237.34c-.157.392-.033.377-2.5.305a17.147,17.147,0,0,1-3.082-.2,17.675,17.675,0,0,0-3.722-.2,1.514,1.514,0,0,0-.273.2c-.139.129-.171.134-.5.081-.582-.1-.612-.088-.612.147v.2H.46a1.38,1.38,0,0,0,.8-.17l.338-.17,1.178.052c.647.028,1.559.08,2.026.115s1.73.088,2.809.118,2.155.08,2.392.111c.517.068.686,0,.891-.331a1.293,1.293,0,0,1,.239-.3,2.373,2.373,0,0,0,.336-.473,2.854,2.854,0,0,1,.324-.474,2.562,2.562,0,0,0,.3-.417,1.8,1.8,0,0,1,.347-.43,1.328,1.328,0,0,0,.3-.368A5.4,5.4,0,0,1,13.55,35.5a4.689,4.689,0,0,0,.419-.507,5.264,5.264,0,0,1,.4-.5,5.084,5.084,0,0,0,.384-.476A.976.976,0,0,1,15,33.743a1.137,1.137,0,0,0,.269-.355,1.318,1.318,0,0,1,.379-.437.879.879,0,0,0,.285-.282,1.3,1.3,0,0,1,.3-.328,1.272,1.272,0,0,0,.3-.331.916.916,0,0,1,.285-.29,1.4,1.4,0,0,0,.347-.342,5.378,5.378,0,0,1,.964-1,.794.794,0,0,0,.25-.3.979.979,0,0,1,.278-.331,3.51,3.51,0,0,0,.433-.367c.272-.266.879-.828,1.083-1a1.842,1.842,0,0,0,.224-.251c.25-.339,1.447-.278,2.21.114a4.914,4.914,0,0,0,1.407.374,2.332,2.332,0,0,1,.715.241,3.818,3.818,0,0,0,1.3.348,11.726,11.726,0,0,1,1.4.315,5.153,5.153,0,0,0,.939.206,3.447,3.447,0,0,1,1.335.3,2.81,2.81,0,0,0,1.237.441,4.8,4.8,0,0,1,.961.261,4.955,4.955,0,0,0,.542.207c.492.123.5.394.04.963a3.478,3.478,0,0,0-.336.5,1.017,1.017,0,0,1-.319.357.891.891,0,0,0-.3.331,2.068,2.068,0,0,1-.308.433,8.852,8.852,0,0,0-.882,1.154,4.5,4.5,0,0,1-.46.585,1.849,1.849,0,0,0-.31.421.949.949,0,0,1-.205.292,1.285,1.285,0,0,0-.239.361,2.407,2.407,0,0,1-.379.53,2.864,2.864,0,0,0-.389.506c-.093.159-.255.4-.36.542a1.058,1.058,0,0,0-.192.333,1.885,1.885,0,0,1-.29.457,4.94,4.94,0,0,0-.437.685,1.3,1.3,0,0,1-.273.395,1.864,1.864,0,0,0-.328.533,2.94,2.94,0,0,1-.34.592,1.737,1.737,0,0,0-.255.42,2.209,2.209,0,0,1-.328.507,2.445,2.445,0,0,0-.36.6,3.065,3.065,0,0,1-.284.547,3.034,3.034,0,0,0-.291.619,1.9,1.9,0,0,1-.355.644,1.525,1.525,0,0,0-.291.468,3.822,3.822,0,0,1-.287.585,4.743,4.743,0,0,0-.353.8,2.008,2.008,0,0,1-.246.552,2.024,2.024,0,0,0-.4.823,2.077,2.077,0,0,1-.294.583,2.1,2.1,0,0,0-.327.724,4.789,4.789,0,0,1-.238.685c-.188.371-.154.514.124.514.222,0,.234-.009.234-.178a2.929,2.929,0,0,1,.492-1.514,2.142,2.142,0,0,0,.248-.6,1.329,1.329,0,0,1,.264-.58c.137-.073.258-.31.409-.8a2.02,2.02,0,0,1,.257-.554,2.7,2.7,0,0,0,.3-.662c.127-.391.2-.531.35-.642A.9.9,0,0,0,24.78,44a2.762,2.762,0,0,1,.288-.571,2.461,2.461,0,0,0,.266-.512,2.287,2.287,0,0,1,.449-.831,2.018,2.018,0,0,0,.285-.489,1.445,1.445,0,0,1,.305-.457,1.537,1.537,0,0,0,.358-.609,1.059,1.059,0,0,1,.253-.457,1.2,1.2,0,0,0,.278-.422,2.041,2.041,0,0,1,.352-.537,2.3,2.3,0,0,0,.367-.527,1.645,1.645,0,0,1,.279-.422,1.13,1.13,0,0,0,.227-.365,2.72,2.72,0,0,1,.393-.594,3,3,0,0,0,.394-.57,1.475,1.475,0,0,1,.291-.411,1.458,1.458,0,0,0,.284-.381,1.345,1.345,0,0,1,.289-.376,1.14,1.14,0,0,0,.264-.337,3.288,3.288,0,0,1,.41-.554,3.746,3.746,0,0,0,.411-.539,1.052,1.052,0,0,1,.23-.292,1.041,1.041,0,0,0,.236-.374.77.77,0,0,1,.326-.409,1.47,1.47,0,0,0,.38-.388,1.694,1.694,0,0,1,.283-.347,1.622,1.622,0,0,0,.481-1.093c-.056-.5-.438-.688-1.787-.883-.712-.1-.807-.131-1.089-.325a2.242,2.242,0,0,0-1.122-.354,5.985,5.985,0,0,1-1.049-.257,5.68,5.68,0,0,0-1.723-.39,3.142,3.142,0,0,1-1.127-.27,4.815,4.815,0,0,0-1.465-.368,2.474,2.474,0,0,1-.666-.24,6.079,6.079,0,0,0-1.892-.507,1.772,1.772,0,0,0-.454.017M0,40.813c0,.234.015.263.132.264a6.642,6.642,0,0,1,1.741.438,2.567,2.567,0,0,0,1.254.388,5.743,5.743,0,0,1,.964.232,4.862,4.862,0,0,0,1.527.344,2.487,2.487,0,0,1,1.292.312,5.083,5.083,0,0,0,.518.33c.355.2.356.2.246.322a1.152,1.152,0,0,0-.184.351,1.592,1.592,0,0,1-.3.474,2.2,2.2,0,0,0-.377.648,2.194,2.194,0,0,1-.261.522,1.97,1.97,0,0,0-.355.848.637.637,0,0,1-.257.442,1.8,1.8,0,0,0-.472.9.775.775,0,0,1-.147.264,2.165,2.165,0,0,0-.378.906,1.473,1.473,0,0,1-.345.757c-.2.167-.117.413.142.413.193,0,.234-.02.234-.114a6.073,6.073,0,0,1,.47-1.381,5.5,5.5,0,0,0,.322-.768,1.735,1.735,0,0,1,.347-.687,1.755,1.755,0,0,0,.323-.547,3.591,3.591,0,0,1,.312-.614,3.185,3.185,0,0,0,.3-.609,3.265,3.265,0,0,1,.349-.673,3.756,3.756,0,0,0,.344-.588.905.905,0,0,1,.208-.337c.125,0,.258-.3.195-.442a2.959,2.959,0,0,0-2.016-.938A5.065,5.065,0,0,1,5.032,42a7.091,7.091,0,0,0-1.317-.32A4.952,4.952,0,0,1,2.4,41.342a4.335,4.335,0,0,0-.79-.265A2.136,2.136,0,0,1,.528,40.7C.274,40.427,0,40.487,0,40.813" transform="translate(0)" fill="#fff" fill-rule="evenodd"/>
    <path id="path4" d="M45,.169c0,.255-.239.329-1,.308a6.058,6.058,0,0,0-.967.046c-.191.035-.7.09-1.136.124a9.555,9.555,0,0,0-2.124.308,8.092,8.092,0,0,1-1.8.275,2.444,2.444,0,0,0-.643.118,3.906,3.906,0,0,1-.68.154,1.272,1.272,0,0,0-.532.174,1.7,1.7,0,0,1-.694.256c-.036,0-.376.094-.756.21a16.169,16.169,0,0,1-1.754.377,5.594,5.594,0,0,0-1.528.372,8.028,8.028,0,0,1-.931.331,3.729,3.729,0,0,0-.788.322,3.084,3.084,0,0,1-.7.29,4.21,4.21,0,0,0-.731.274c-.193.1-.443.212-.556.255l-.2.076.234,0a1.226,1.226,0,0,0,.74-.3,2.492,2.492,0,0,1,.693-.188c.548-.087.745-.192.828-.442a1.893,1.893,0,0,1,.81-.236,1.193,1.193,0,0,0,.8-.326c.2-.2.2-.2.739-.2a8.162,8.162,0,0,0,2.88-.439,4.251,4.251,0,0,1,1.443-.425.759.759,0,0,0,.582-.2c.253-.226.45-.27,1.427-.317.451-.022.938-.064,1.083-.094s.461-.09.7-.133a3.84,3.84,0,0,0,.656-.174,2.312,2.312,0,0,1,.859-.095,6.04,6.04,0,0,0,1.07-.093A3.31,3.31,0,0,1,44,.728,2.517,2.517,0,0,0,44.851.68L45.494.5A24.516,24.516,0,0,1,49.643.4c3.808,0,4.094.016,4.7.217A3.534,3.534,0,0,0,55.224.7c.345,0,.877.028,1.183.061s.822.083,1.147.11a3.147,3.147,0,0,1,.725.121,2,2,0,0,0,.492.12c.2.026.541.089.766.139a4.2,4.2,0,0,0,.724.091,5.064,5.064,0,0,1,1.968.395,4.861,4.861,0,0,0,1.557.423,1.266,1.266,0,0,1,.424.147,4.343,4.343,0,0,0,1.354.379c.787.118.776.114.815.268.024.1.077.145.158.145a2.654,2.654,0,0,1,.944.278c.122.11.028.252-.266.4A.515.515,0,0,0,67,4.012a.429.429,0,0,1-.217.208c-.447.176-.539.233-.665.413l-.136.194.243-.216a1.457,1.457,0,0,1,.477-.279,2.651,2.651,0,0,0,1.052-.719c.207-.355-.779-.916-1.973-1.122a3.748,3.748,0,0,1-.7-.174,4.271,4.271,0,0,0-1.3-.355c-.8-.12-1-.179-1.245-.375-.179-.142-.316-.183-.9-.27-.379-.056-.848-.138-1.041-.183a3.31,3.31,0,0,0-.556-.081,1.778,1.778,0,0,1-.5-.113A9.5,9.5,0,0,0,57.4.641c-.4-.032-.777-.072-.832-.09S56.066.5,55.575.47c-1.042-.057-1.1-.072-1.1-.3V0H45V.169M55.471,2.593c-.016.016-.6.072-1.287.125s-1.482.123-1.755.154-1.032.095-1.686.14a6.513,6.513,0,0,0-2.263.325,3.883,3.883,0,0,1-1.17.228c-1.577.14-2.122.243-2.367.45a1.433,1.433,0,0,1-.683.234c-.562.1-.745.173-.948.391-.139.149-.288.2-1.079.364a1.527,1.527,0,0,0-.627.24,2.508,2.508,0,0,1-.629.3,1.554,1.554,0,0,0-.631.337,1.381,1.381,0,0,1-.439.282,2.37,2.37,0,0,0-.554.338,3.59,3.59,0,0,1-.516.355.9.9,0,0,0-.323.284.861.861,0,0,1-.3.276.788.788,0,0,0-.339.384.6.6,0,0,1-.368.372.646.646,0,0,0-.319.258,1,1,0,0,1-.263.29,1.409,1.409,0,0,0-.344.487,2.206,2.206,0,0,1-.381.565,1.117,1.117,0,0,0-.3.511,1.779,1.779,0,0,1-.283.539,2.683,2.683,0,0,0-.011,2.562,1.078,1.078,0,0,1,.235.3.8.8,0,0,0,.374.319.827.827,0,0,1,.411.377.65.65,0,0,0,.4.345.925.925,0,0,1,.334.2,1.415,1.415,0,0,0,.808.415,2.872,2.872,0,0,1,.642.257,4.8,4.8,0,0,0,1.354.44,1.022,1.022,0,0,1,.369.121,2.2,2.2,0,0,0,1.226.465,3.372,3.372,0,0,1,.79.2,3.786,3.786,0,0,0,1.493.35c.886.1,1.068.147,1.329.342a2.34,2.34,0,0,0,1.149.361,3.964,3.964,0,0,1,.907.263,7.7,7.7,0,0,0,1.953.441.979.979,0,0,1,.574.207,1.4,1.4,0,0,0,.542.234c.98.2,1.162.249,1.27.35a2.585,2.585,0,0,0,1.17.444,1.726,1.726,0,0,1,.689.236,1.718,1.718,0,0,0,.832.293.85.85,0,0,1,.615.314,1.746,1.746,0,0,0,.787.434,1.146,1.146,0,0,1,.387.236,1.633,1.633,0,0,0,.847.379.664.664,0,0,1,.367.237.925.925,0,0,0,.326.258,1.043,1.043,0,0,1,.351.285,2.247,2.247,0,0,0,.5.417A4.674,4.674,0,0,1,59.9,24.328a1.355,1.355,0,0,0,.4.688c.153.1.242.369.323.971.06.441.184.72.364.817s.119.636-.125,1.224a3.9,3.9,0,0,0-.265,1.205c-.1.9-.1.9-.336,1.048-.149.094-.211.2-.319.548a2.815,2.815,0,0,1-.249.59,4.064,4.064,0,0,0-.408,1.035c-.048.186-.1.259-.243.316a.666.666,0,0,0-.324.378,1.357,1.357,0,0,1-.314.429,1.56,1.56,0,0,0-.328.4,3.479,3.479,0,0,1-.456.581L57.181,35a6.923,6.923,0,0,1-1.072.948,2.227,2.227,0,0,0-.455.389,1.191,1.191,0,0,1-.355.289,1.236,1.236,0,0,0-.343.263,1.174,1.174,0,0,1-.388.264,1.507,1.507,0,0,0-.431.288,2.766,2.766,0,0,1-.568.39,3.033,3.033,0,0,0-.543.356.7.7,0,0,1-.293.172,2.181,2.181,0,0,0-.919.383,1.828,1.828,0,0,1-.512.28c-.405.139-.688.285-.688.355,0,.14-.267.289-.578.323a2.492,2.492,0,0,0-1.155.332,3.084,3.084,0,0,1-.919.321,4.334,4.334,0,0,0-1.183.377,6.557,6.557,0,0,1-1.269.376,1.689,1.689,0,0,0-.549.213c-.245.156-.38.186-1.339.306a5.019,5.019,0,0,0-1.339.265,2.541,2.541,0,0,1-.637.181,4.4,4.4,0,0,0-.545.1,4.234,4.234,0,0,1-.614.1,4.626,4.626,0,0,0-1.65.4c-.356.186-.357.186-1.559.23-.662.024-1.4.072-1.642.106s-.749.086-1.128.116a2.8,2.8,0,0,0-.878.156,4.063,4.063,0,0,1-1.389.147c-.66.025-1.574.061-2.031.08a2.891,2.891,0,0,1-1.131-.065l-.3-.1.117-.126a2.768,2.768,0,0,0,.3-.673,2.541,2.541,0,0,1,.35-.741,2.426,2.426,0,0,0,.416-.933c0-.045.083-.14.183-.212a1.075,1.075,0,0,0,.293-.38,2.61,2.61,0,0,1,.323-.5,2.183,2.183,0,0,0,.43-.82,3.621,3.621,0,0,1,.323-.549,6.329,6.329,0,0,0,.375-.624c.037-.093.179-.184.465-.3a.95.95,0,0,0,.534-.362.67.67,0,0,1,.427-.3,1.593,1.593,0,0,0,.509-.293c.208-.2.472-.289,1.276-.441a1.622,1.622,0,0,0,.6-.234,2.135,2.135,0,0,1,.6-.26,1.5,1.5,0,0,0,.795-.384,1.946,1.946,0,0,1,.588-.283,1.307,1.307,0,0,0,.566-.294,1.493,1.493,0,0,1,.553-.3,1.651,1.651,0,0,0,.569-.309,1.968,1.968,0,0,1,.384-.287.9.9,0,0,0,.308-.292,1.935,1.935,0,0,1,.3-.364c.3-.279.384-.8.263-1.578l-.045-.292-.01.351a2.314,2.314,0,0,1-.314,1.248,3.143,3.143,0,0,0-.3.4,1.337,1.337,0,0,1-.431.406,4.114,4.114,0,0,0-.439.291,2.182,2.182,0,0,1-.494.256,2.067,2.067,0,0,0-.553.323,1.73,1.73,0,0,1-.618.321,2.271,2.271,0,0,0-.6.285,1.4,1.4,0,0,1-.78.357,4.12,4.12,0,0,0-.756.283,4.646,4.646,0,0,1-.865.305,1.545,1.545,0,0,0-.758.328,2.164,2.164,0,0,1-.5.315,2.162,2.162,0,0,0-.481.295,3.185,3.185,0,0,1-.546.35,1.376,1.376,0,0,0-.447.336c-.055.088-.187.27-.293.4a3.213,3.213,0,0,0-.351.614,5.17,5.17,0,0,1-.373.693c-.118.177-.271.433-.34.569a2.588,2.588,0,0,1-.293.439,2.3,2.3,0,0,0-.295.484,4.927,4.927,0,0,1-.3.558,5.967,5.967,0,0,0-.38.784,5.5,5.5,0,0,1-.312.672c-.306.451-.226.713.253.829a43.62,43.62,0,0,0,4.476-.073,7.6,7.6,0,0,1,.965-.106,2.879,2.879,0,0,0,1.024-.169,1.538,1.538,0,0,1,.673-.124,5.641,5.641,0,0,0,.76-.061c.193-.033.667-.084,1.053-.114A9.6,9.6,0,0,0,40.14,42.6a8.425,8.425,0,0,1,1.229-.2,4.2,4.2,0,0,0,1.083-.2,4.77,4.77,0,0,1,.848-.214,12.8,12.8,0,0,0,2.257-.561c.384-.132.892-.292,1.13-.355a4.6,4.6,0,0,0,.7-.25,3.088,3.088,0,0,1,.591-.206,5.027,5.027,0,0,0,1.17-.384,1.785,1.785,0,0,1,.819-.321,1.558,1.558,0,0,0,.871-.383,2.85,2.85,0,0,1,.629-.325,3.786,3.786,0,0,0,.619-.295,4.364,4.364,0,0,1,.621-.31,7.859,7.859,0,0,0,1.591-.957,3.288,3.288,0,0,1,.433-.3,6.139,6.139,0,0,0,1.026-.8A8.393,8.393,0,0,1,56.44,36a5.779,5.779,0,0,0,.7-.6c.193-.2.486-.5.652-.662a2.778,2.778,0,0,0,.366-.431,2.99,2.99,0,0,1,.3-.4,3.411,3.411,0,0,0,.376-.545,2.091,2.091,0,0,1,.364-.479,1.351,1.351,0,0,0,.305-.439A2.472,2.472,0,0,1,59.726,32a4.053,4.053,0,0,0,.312-.783,1.779,1.779,0,0,1,.4-.817.818.818,0,0,0,.268-.651,3.991,3.991,0,0,1,.219-1.16l.184-.33a1.892,1.892,0,0,0,.139-.812l.028-.617-.206-.3a1.907,1.907,0,0,1-.3-.79,2.041,2.041,0,0,0-.428-1.07,1.734,1.734,0,0,1-.274-.5,3.682,3.682,0,0,0-1.2-1.405c-.157-.113-.542-.422-.856-.687a3.3,3.3,0,0,0-.844-.573,3.727,3.727,0,0,1-.6-.288,3.733,3.733,0,0,0-.614-.292,1.84,1.84,0,0,1-.514-.29,2.221,2.221,0,0,0-.794-.445,3.481,3.481,0,0,1-.558-.237,3.766,3.766,0,0,0-.959-.32,2.655,2.655,0,0,1-.834-.284,5.154,5.154,0,0,0-.974-.361,6.019,6.019,0,0,1-.843-.275,3.789,3.789,0,0,0-1.227-.372,8.812,8.812,0,0,1-1.112-.283,8.964,8.964,0,0,0-1.207-.293,3.43,3.43,0,0,1-1.083-.321,6.079,6.079,0,0,0-1.726-.482c-.177-.035-.506-.124-.732-.2s-.778-.2-1.229-.291a3.832,3.832,0,0,1-1.119-.329,3.579,3.579,0,0,0-.735-.279,6.483,6.483,0,0,1-.9-.321,8.82,8.82,0,0,0-.874-.335,4.406,4.406,0,0,1-.785-.346,3.946,3.946,0,0,0-.6-.293.646.646,0,0,1-.368-.3,1.584,1.584,0,0,0-.436-.409,1.055,1.055,0,0,1-.291-.221,2.512,2.512,0,0,0-.2-.382c-.48-.8-.457-1.216.145-2.667a2.579,2.579,0,0,1,.378-.644,2.594,2.594,0,0,0,.355-.524A3.874,3.874,0,0,1,37.7,8.275a.844.844,0,0,0,.278-.316,1.225,1.225,0,0,1,.44-.437,1.084,1.084,0,0,0,.321-.261A1.136,1.136,0,0,1,39.076,7a6.621,6.621,0,0,0,.571-.392,2.572,2.572,0,0,1,.465-.29,1.827,1.827,0,0,0,.422-.28,2.009,2.009,0,0,1,.673-.335,5.44,5.44,0,0,0,.782-.326,4.565,4.565,0,0,1,.844-.313,2.154,2.154,0,0,0,.7-.283,1.162,1.162,0,0,1,.8-.362c.253-.045.79-.178,1.192-.295a11.126,11.126,0,0,1,1.9-.352c.644-.077,1.262-.168,1.375-.2,1.829-.559,10.823-.851,14.365-.466.29.032.939.081,1.443.111a3.524,3.524,0,0,1,1.109.153l.192.1-.185.165a1.226,1.226,0,0,1-.407.227,8.7,8.7,0,0,0-1.357.527,2.186,2.186,0,0,0,.439-.119c.19-.067.569-.195.843-.284.894-.293,1.063-.391,1.042-.6-.027-.267-.241-.315-1.627-.361a13.908,13.908,0,0,1-1.434-.1c-.128-.031-.747-.085-1.375-.119s-1.378-.087-1.668-.118c-.56-.06-4.661-.141-4.71-.093M27.134,4.536a2.031,2.031,0,0,0-.468.283,2.424,2.424,0,0,1-.565.323,4.631,4.631,0,0,0-.646.323,4.933,4.933,0,0,1-.712.347,1.9,1.9,0,0,0-.532.292,1.913,1.913,0,0,1-.4.277,2.65,2.65,0,0,0-.449.3,3.561,3.561,0,0,1-.589.368,2.252,2.252,0,0,0-.476.3,1.461,1.461,0,0,1-.348.233A1.92,1.92,0,0,0,21.5,7.9a3.2,3.2,0,0,1-.439.367,5.641,5.641,0,0,0-.506.4A2.73,2.73,0,0,1,20.091,9a1.168,1.168,0,0,0-.364.326c-.077.115-.159.209-.184.209a7.954,7.954,0,0,0-.709.664,7.23,7.23,0,0,1-.759.7,1.115,1.115,0,0,0-.28.363,1.2,1.2,0,0,1-.269.362.836.836,0,0,0-.227.277,4.991,4.991,0,0,1-.47.611,4.186,4.186,0,0,0-.327.391,3.6,3.6,0,0,0,.7-.761,5.766,5.766,0,0,1,.408-.527,1.846,1.846,0,0,0,.285-.412.7.7,0,0,1,.284-.292,1.186,1.186,0,0,0,.356-.332.733.733,0,0,1,.251-.252.956.956,0,0,0,.288-.251,3.682,3.682,0,0,1,.248-.275c.037-.032.213-.206.393-.387a2.927,2.927,0,0,1,.5-.418,2.043,2.043,0,0,0,.389-.3,4.058,4.058,0,0,1,.532-.411,1.755,1.755,0,0,0,.418-.356,1.128,1.128,0,0,1,.4-.289,1.49,1.49,0,0,0,.436-.291.474.474,0,0,1,.187-.154,2.308,2.308,0,0,0,.852-.472,1,1,0,0,1,.4-.28,1.885,1.885,0,0,0,.492-.322,1.448,1.448,0,0,1,.629-.3,1.57,1.57,0,0,0,.661-.32,1.345,1.345,0,0,1,.581-.29c.354-.1.44-.154.543-.323a.672.672,0,0,1,.414-.3,1.139,1.139,0,0,0,.29-.121c0-.038-.068-.024-.309.065m35.487.089a1.779,1.779,0,0,0-.324.2,2.028,2.028,0,0,1-.334.207c-.137.06-.136.061.031.028a.957.957,0,0,0,.314-.133c.076-.054.234-.157.351-.229.219-.134.2-.167-.038-.071m2.653.441a1.24,1.24,0,0,0-.354.2,2.157,2.157,0,0,1-.5.267,2.322,2.322,0,0,0-.611.374,1.628,1.628,0,0,1-.322.254c-.073.026-.071.033.009.037a.944.944,0,0,0,.361-.246A1.933,1.933,0,0,1,64.42,5.6a2.777,2.777,0,0,0,.516-.256,3.526,3.526,0,0,1,.453-.253c.282-.126.209-.138-.114-.02m-4.684.326a3.956,3.956,0,0,1-.555.231c-.177.058-.281.106-.23.107a2.539,2.539,0,0,0,.9-.319c.288-.179.2-.193-.118-.019m-1.345.4c-.157.04-.16.045-.029.045a1.589,1.589,0,0,0,.322-.045c.157-.04.16-.045.029-.045a1.592,1.592,0,0,0-.322.045m-.529.136a2.673,2.673,0,0,0-.38.2,1.575,1.575,0,0,1-.366.168c-.09.022-.151.053-.136.069a1.311,1.311,0,0,0,.633-.228,2.017,2.017,0,0,1,.381-.193c.122-.045.182-.081.134-.081a1.033,1.033,0,0,0-.266.069m4.3.435a2.4,2.4,0,0,0-.365.258,1.618,1.618,0,0,1-.43.223,3.3,3.3,0,0,0-.679.385c-.431.324-.378.34.084.025a5.187,5.187,0,0,1,.679-.383,2.161,2.161,0,0,0,.452-.258,2.626,2.626,0,0,1,.381-.259c.145-.083.237-.15.205-.15a1.43,1.43,0,0,0-.328.16M57.168,6.5c-.064.043-.04.049.088.02.215-.048.262-.082.112-.08a.425.425,0,0,0-.2.06m-.358.164a2.654,2.654,0,0,1-.315.2c-.1.052-.135.1-.085.1a1.913,1.913,0,0,0,.64-.377c0-.062-.1-.028-.241.078m-1.485.53c-.593.22-1.011.423-.79.384a2.258,2.258,0,0,0,.5-.186,3.744,3.744,0,0,1,.556-.225c.145-.041.211-.077.146-.078a1.625,1.625,0,0,0-.41.1m5.381.619c-.17.177-.286.322-.259.322a.9.9,0,0,0,.243-.24,1.538,1.538,0,0,1,.339-.319c.081-.044.111-.081.066-.082a1.324,1.324,0,0,0-.39.319m-7.06-.067a1.147,1.147,0,0,0-.38.225,1.523,1.523,0,0,1-.369.246c-.113.049-.174.09-.136.091a1.009,1.009,0,0,0,.563-.279,1.469,1.469,0,0,1,.439-.255c.309-.11.217-.131-.117-.027m6.3.5a1.432,1.432,0,0,0-.328.2,1.958,1.958,0,0,1-.291.213c-.109.067-.177.121-.151.121a1.37,1.37,0,0,0,.508-.3,1.875,1.875,0,0,1,.439-.25c.129-.047.194-.087.146-.088a1.136,1.136,0,0,0-.324.1m-7.965.308a5.1,5.1,0,0,1-.664.289c-.177.058-.281.107-.23.109a2.1,2.1,0,0,0,.834-.291,1.648,1.648,0,0,1,.374-.2c.122-.045.179-.083.126-.086a1.591,1.591,0,0,0-.439.179m6.859.339a.839.839,0,0,0-.223.205.9.9,0,0,1-.3.217,5.107,5.107,0,0,0-.831.592c-.19.164.222-.07.439-.249a3.23,3.23,0,0,1,.439-.308,1.2,1.2,0,0,0,.293-.222,1.58,1.58,0,0,1,.292-.24c.1-.06.149-.108.117-.108a.733.733,0,0,0-.23.113m-8.276.15a1.184,1.184,0,0,0-.381.2,1.384,1.384,0,0,1-.33.207c-.112.049-.17.09-.127.091a.874.874,0,0,0,.458-.243,1.614,1.614,0,0,1,.468-.222c.189-.059.3-.108.255-.109a1.711,1.711,0,0,0-.343.078m-1.3.609a2.366,2.366,0,0,0-.468.255,2.525,2.525,0,0,1-.636.278,4.4,4.4,0,0,0-1.233.584,2.065,2.065,0,0,0,.622-.3,3.155,3.155,0,0,1,.612-.229,3.01,3.01,0,0,0,.755-.326,1.643,1.643,0,0,1,.441-.238.992.992,0,0,0,.266-.115c0-.041-.079-.021-.358.088m7.761.464a1.261,1.261,0,0,0-.26.209,1.9,1.9,0,0,1-.432.277,3.248,3.248,0,0,0-.618.427,2.748,2.748,0,0,1-.5.37,1.452,1.452,0,0,0-.345.241,1.614,1.614,0,0,1-.409.263,2.287,2.287,0,0,0-.517.35,3.258,3.258,0,0,1-.546.4,1.2,1.2,0,0,0-.36.267.959.959,0,0,1-.331.233,3.013,3.013,0,0,0-.539.363,13.772,13.772,0,0,1-1.183.923,3.768,3.768,0,0,0-.42.328,1.9,1.9,0,0,1-.388.266,1.511,1.511,0,0,0-.393.3,1.575,1.575,0,0,1-.475.324,1.351,1.351,0,0,0-.324.172c0,.084.694-.294.846-.46a1.64,1.64,0,0,1,.382-.3,2.709,2.709,0,0,0,.41-.275c.243-.2.594-.473,1.107-.852.206-.153.469-.36.585-.46a2.61,2.61,0,0,1,.444-.3,1.451,1.451,0,0,0,.347-.244,2.17,2.17,0,0,1,.415-.3,4.189,4.189,0,0,0,.57-.409,2.227,2.227,0,0,1,.475-.323,1.786,1.786,0,0,0,.4-.254,2.3,2.3,0,0,1,.371-.259,2.3,2.3,0,0,0,.423-.329,3.211,3.211,0,0,1,.655-.444,1.365,1.365,0,0,0,.411-.262c0-.03.112-.121.249-.2s.222-.149.19-.15a.782.782,0,0,0-.234.107M46.164,11c-.143.094-.326.228-.407.3l-.146.125.18-.087a.953.953,0,0,0,.263-.188,1.114,1.114,0,0,1,.317-.207c.129-.059.193-.107.143-.108a1.069,1.069,0,0,0-.351.17m-1.426.772a2.216,2.216,0,0,1-.432.236c-.175.072-.211.1-.1.077a1.363,1.363,0,0,0,.647-.324c.134-.149.08-.144-.117.011m-1.175.5a3.5,3.5,0,0,0-.351.224,1.643,1.643,0,0,1-.4.2c-.123.039-.212.082-.2.1a2.011,2.011,0,0,0,.857-.38c.372-.241.424-.321.092-.142m-1.356.742a5.737,5.737,0,0,1-.548.329c-.5.253-.495.282.154.521a1.992,1.992,0,0,1,.543.3,1.125,1.125,0,0,0,.728.274c.038-.013-.036-.043-.163-.067a1.044,1.044,0,0,1-.417-.206,2.565,2.565,0,0,0-.616-.328c-.585-.223-.584-.22-.13-.462.354-.189.865-.56.771-.56a2.091,2.091,0,0,0-.322.2m-25.794.095a1.211,1.211,0,0,1-.2.311c-.157.182-.385.674-.336.723.014.014.074-.111.134-.278a.789.789,0,0,1,.185-.332c.085-.033.329-.479.285-.522-.015-.015-.046.028-.068.1m-.7,1.319c-.06.111-.131.2-.157.2-.071,0-.238.348-.205.428.015.038.03.024.033-.031a.724.724,0,0,1,.172-.292c.179-.206.324-.451.289-.487-.012-.012-.071.069-.131.18m28.523.27a6.652,6.652,0,0,0,1.287.332c.08,0,0-.036-.176-.077s-.524-.143-.771-.228a2.775,2.775,0,0,0-.585-.15c-.075,0,.035.057.244.122m2.194.5a4.043,4.043,0,0,1,.764.258,2.623,2.623,0,0,0,.556.2c.2.031.2.03-.032-.049a2.749,2.749,0,0,1-.439-.2,3.189,3.189,0,0,0-1.112-.3c-.08,0,.038.043.263.091m-31.275.378a1.962,1.962,0,0,1-.174.434c-.19.383-.241.649-.06.32a2.055,2.055,0,0,0,.269-.8c-.019-.019-.035,0-.035.049m33.309.211a1.3,1.3,0,0,0,.322,0c.088-.013.016-.025-.161-.025s-.249.011-.161.025m27.205.661a7.528,7.528,0,0,0-2.03.344,8.062,8.062,0,0,1-1.235.33,1.11,1.11,0,0,0-.358.252,1.584,1.584,0,0,1-.619.356,2.387,2.387,0,0,0-.607.306,3.914,3.914,0,0,1-.545.342,2.2,2.2,0,0,0-.5.349,2.289,2.289,0,0,1-.38.311,7.26,7.26,0,0,0-.767.684c-.309.306-.63.6-.712.659a.834.834,0,0,0-.249.4,1.7,1.7,0,0,1-.264.486,2.39,2.39,0,0,0-.306.507,1.329,1.329,0,0,1-.345.475c-.168.128-.227.236-.336.614a4,4,0,0,1-.266.692,5.314,5.314,0,0,0-.384,1.663,5.734,5.734,0,0,1-.366,1.721,3.5,3.5,0,0,0,0,2.351,5.632,5.632,0,0,1,.364,1.722,5.44,5.44,0,0,0,.445,1.673,2.615,2.615,0,0,1,.2.5,2.406,2.406,0,0,0,.343.662,3.253,3.253,0,0,1,.347.567,2.553,2.553,0,0,0,.326.517,1.356,1.356,0,0,1,.213.3,5.878,5.878,0,0,0,.571.627c.314.319.67.7.791.85a2.831,2.831,0,0,0,.576.493,5.777,5.777,0,0,1,.628.464,2.918,2.918,0,0,0,.448.331,2.937,2.937,0,0,1,.4.268,2.373,2.373,0,0,0,.614.3,7,7,0,0,1,.794.329,4.7,4.7,0,0,0,.931.315,2.579,2.579,0,0,1,.8.286c.951.61,5.9.632,6.854.029a4.3,4.3,0,0,1,.9-.318,3.914,3.914,0,0,0,.926-.337,3.054,3.054,0,0,1,.626-.278,1.507,1.507,0,0,0,.568-.306,2.268,2.268,0,0,1,.435-.312,1.2,1.2,0,0,0,.356-.292,1.649,1.649,0,0,1,.43-.345,7.86,7.86,0,0,0,2.087-2.52,2.33,2.33,0,0,1,.3-.517,1.335,1.335,0,0,0,.219-.41,3.977,3.977,0,0,1,.288-.594,2.646,2.646,0,0,0,.375-1.344l.074-.652-.2-.172-.2-.172H86.062c-3,0-3,0-3.149.731a2.183,2.183,0,0,1-.409.936,2.97,2.97,0,0,0-.271.43,1.1,1.1,0,0,1-.328.4,3.071,3.071,0,0,0-.448.339,2,2,0,0,1-.586.355,2.777,2.777,0,0,0-.576.29c-.967.665-3.936.721-5.163.1a6.744,6.744,0,0,0-.747-.324,2.773,2.773,0,0,1-.644-.352,4.906,4.906,0,0,0-.528-.348,1.442,1.442,0,0,1-.392-.374,1.9,1.9,0,0,0-.377-.392,1.093,1.093,0,0,1-.329-.468,2.239,2.239,0,0,0-.349-.556,1.861,1.861,0,0,1-.323-.542,2.139,2.139,0,0,0-.258-.5,1.374,1.374,0,0,1-.332-.95c-.025-.274-.072-.695-.1-.936a4.288,4.288,0,0,1,.022-1.551,4.4,4.4,0,0,0,.088-.739,1.537,1.537,0,0,1,.346-1.018,2.07,2.07,0,0,0,.3-.532,3.025,3.025,0,0,1,.321-.6,3,3,0,0,0,.292-.5,4.213,4.213,0,0,1,1.111-1.106,3.289,3.289,0,0,0,.372-.278,2.842,2.842,0,0,1,.5-.32,6.67,6.67,0,0,0,.6-.347,5.426,5.426,0,0,1,2.926-.466c2.181,0,2.955.224,3.919,1.135a3.163,3.163,0,0,0,.424.32,1.071,1.071,0,0,1,.333.319,2.807,2.807,0,0,0,.282.4,2.007,2.007,0,0,1,.308.6,2.034,2.034,0,0,0,.928,1.085,31.545,31.545,0,0,0,4.534-.111c.224-.2.244-.548.243-4.21V17.349l-.139-.3c-.181-.388-.086-.374-2.587-.374H83.794l-.086.132a3.171,3.171,0,0,0-.207.649c-.184.789-.264.878-.533.589a1.83,1.83,0,0,0-.418-.292,2.764,2.764,0,0,1-.468-.308,1.845,1.845,0,0,0-.842-.424c-.158-.039-.51-.156-.784-.261a15.049,15.049,0,0,0-4.787-.317m26.22,0a6.1,6.1,0,0,0-1.826.345,5.412,5.412,0,0,1-1.018.321,1.239,1.239,0,0,0-.41.263,2.423,2.423,0,0,1-.612.375,2.886,2.886,0,0,0-.527.273c-.088.068-.318.225-.511.348a8.6,8.6,0,0,0-.907.736c-.306.282-.642.578-.746.658a2.762,2.762,0,0,0-.46.577,1.95,1.95,0,0,1-.317.432,1.231,1.231,0,0,0-.253.337,2,2,0,0,1-.379.466.824.824,0,0,0-.246.351c-.039.122-.186.46-.326.75a6.381,6.381,0,0,0-.38,1.04,1.9,1.9,0,0,1-.3.73c-.243.3-.269.395-.341,1.171a9.806,9.806,0,0,1-.321,1.826,2.933,2.933,0,0,0,.025,1.521,7.574,7.574,0,0,1,.3,1.768c.058.715.1.853.336,1.106a2.331,2.331,0,0,1,.316.75,6.683,6.683,0,0,0,.312.871c.077.151.209.445.294.654a2.34,2.34,0,0,0,.377.614,3.189,3.189,0,0,1,.38.51,1.192,1.192,0,0,0,.24.322,2.238,2.238,0,0,1,.335.436A5.969,5.969,0,0,0,96.2,37.263a4.854,4.854,0,0,1,.479.4,1.405,1.405,0,0,0,.426.31.939.939,0,0,1,.343.23,2.2,2.2,0,0,0,.631.374,6.24,6.24,0,0,1,.7.322,3.849,3.849,0,0,0,.771.293,3.338,3.338,0,0,1,.731.282,2.081,2.081,0,0,0,1.088.367,14.323,14.323,0,0,0,5.028-.23l.439-.231a3.131,3.131,0,0,1,.68-.2,2.189,2.189,0,0,0,.731-.261,3.533,3.533,0,0,1,.651-.3,2.349,2.349,0,0,0,.6-.3c.323-.256.522-.133.6.371.073.449.235.66.565.736.508.117,7.912.093,8.095-.027.373-.244.379-.286.379-2.4V35.073l-.17-.268c-.24-.378-.193-.367-1.642-.4l-1.314-.029-.135-.2-.135-.2.015-5.943c.016-5.877.017-5.946.136-6.148l.12-.2,1.349-.016,1.35-.015.213-.207.212-.206V19.3c0-2.091-.011-2.171-.354-2.513-.134-.134-7.519-.182-8.121-.053-.321.069-.378.153-.565.833-.141.513-.263.609-.543.426a3.438,3.438,0,0,0-.558-.269,2.332,2.332,0,0,1-.6-.352,1.531,1.531,0,0,0-.51-.289,6.782,6.782,0,0,1-1.1-.324,15.539,15.539,0,0,0-4.895-.317m36.788.037a8.4,8.4,0,0,0-1.63.282c-.246.076-.706.194-1.022.261a2.487,2.487,0,0,0-1.152.473,2.725,2.725,0,0,1-.585.27,3.268,3.268,0,0,0-.6.264,3.618,3.618,0,0,1-.5.261,5.743,5.743,0,0,0-.6.313c-.773.482-.936.385-.936-.555a1.91,1.91,0,0,0-.274-1.268c-.09-.1-.324-.105-4.244-.105h-4.148l-.128.278c-.123.266-.129.362-.146,2.269l-.018,1.991.137.2.137.2,1.522.029c1.746.033,1.776.041,1.889.49.131.518.091,11.725-.042,11.974-.158.294-.529.355-2.062.336-1.362-.016-1.338-.023-1.485.421a19.927,19.927,0,0,0,.058,4.362l.117.234,6.641.017c7.55.02,7.31.028,7.534-.266l.16-.21V35.02l-.163-.278-.163-.278-2.236-.006c-2.588-.007-2.809-.032-2.976-.345-.1-.194-.108-.448-.108-5.33,0-5.877-.078-5.222.644-5.433.242-.071.638-.2.881-.3a5.919,5.919,0,0,1,1.112-.26,9.4,9.4,0,0,0,1.926-.395,13.9,13.9,0,0,1,3.293-.378l.922-.034v-.353l-.483.036c-.265.02-.746.088-1.068.151A15.492,15.492,0,0,1,137.3,22a4.876,4.876,0,0,0-1.951.358,2.18,2.18,0,0,1-.79.174,4.4,4.4,0,0,0-2,.462,1.968,1.968,0,0,1-.514.236c-.641.21-.583-.355-.579,5.655,0,5.134.007,5.246.123,5.485.208.429.1.412,2.854.447,2.382.03,2.473.035,2.558.148A21.947,21.947,0,0,1,137.018,39c-.137.187-.529.2-7.357.2l-6.646,0-.068-.149a28.578,28.578,0,0,1,.006-4.118l.072-.142,1.524,0c1.741,0,1.754-.008,1.978-.492l.126-.273V28.087c0-4.68-.016-5.992-.075-6.188-.134-.443-.167-.451-1.97-.47-1.389-.015-1.591-.029-1.656-.114a29.027,29.027,0,0,1-.009-4.1l.064-.184h8.276l.1.207a2.175,2.175,0,0,1,.1.9c0,.659.006.7.146.827.248.233.877.133,1.247-.2a1.566,1.566,0,0,1,.547-.29,1.841,1.841,0,0,0,.575-.3,1.519,1.519,0,0,1,.488-.266,1.622,1.622,0,0,0,.815-.4c.212-.191.256-.2,1.171-.338a11.688,11.688,0,0,0,1.411-.287,11.8,11.8,0,0,1,2.48-.262.083.083,0,0,0,.073-.089,5.6,5.6,0,0,0-1.755-.048m-59.822.2a3.778,3.778,0,0,1,1.082.224,5.356,5.356,0,0,0,.87.237,1.508,1.508,0,0,1,1.024.418,1.683,1.683,0,0,0,.5.315,1.084,1.084,0,0,1,.433.3c.415.5.791.3.888-.475a3.547,3.547,0,0,1,.095-.483l.059-.19,1.912,0c2.045,0,2.441.035,2.565.2.085.116.109,7.1.026,7.4s-.213.32-2.443.339l-2.056.017-.122-.2a1.034,1.034,0,0,0-.328-.309c-.113-.061-.206-.141-.206-.179a2.477,2.477,0,0,0-.43-1.052,2.242,2.242,0,0,1-.283-.354.975.975,0,0,0-.346-.292.873.873,0,0,1-.328-.278.863.863,0,0,0-.327-.277,2.645,2.645,0,0,1-.484-.342,1.314,1.314,0,0,0-.644-.319c-.224-.057-.618-.167-.875-.247a7.125,7.125,0,0,0-3.41-.031,3.9,3.9,0,0,1-.745.21c-.52.1-.772.207-.868.368a1.835,1.835,0,0,1-.477.277,2.224,2.224,0,0,0-.595.383,1.4,1.4,0,0,1-.369.284,1.021,1.021,0,0,0-.34.3,1.075,1.075,0,0,1-.33.3.7.7,0,0,0-.326.426.986.986,0,0,1-.242.385,1.29,1.29,0,0,0-.381.766.766.766,0,0,1-.286.488c-.309.294-.32.327-.375,1.119a2.551,2.551,0,0,1-.15.849,2.358,2.358,0,0,0-.031,1.6,3.223,3.223,0,0,1,.178,1.011,1.386,1.386,0,0,0,.355,1.014,1.339,1.339,0,0,1,.312.541,1.2,1.2,0,0,0,.244.453,1.965,1.965,0,0,1,.316.5,1.1,1.1,0,0,0,.414.527,1.408,1.408,0,0,1,.379.4.939.939,0,0,0,.344.339,2.2,2.2,0,0,1,.444.339,1.328,1.328,0,0,0,.634.349,1.462,1.462,0,0,1,.486.218,2.188,2.188,0,0,0,1.221.4,4.9,4.9,0,0,1,.936.22,3.489,3.489,0,0,0,1.931-.011,6.613,6.613,0,0,1,.865-.218c.617-.108.734-.153.918-.361a.84.84,0,0,1,.486-.243,1,1,0,0,0,.627-.378,2.046,2.046,0,0,1,.451-.372.774.774,0,0,0,.306-.357,1.345,1.345,0,0,1,.316-.41c.206-.146.272-.3.409-.943.094-.443.125-.507.277-.585a35.2,35.2,0,0,1,4.888-.055c.192.1.125,1.2-.092,1.515a3.666,3.666,0,0,0-.411,1.019.911.911,0,0,1-.259.367,1.068,1.068,0,0,0-.33.564,1.158,1.158,0,0,1-.33.574.721.721,0,0,0-.223.315,1.118,1.118,0,0,1-.278.4,9.115,9.115,0,0,1-1.265,1.214.822.822,0,0,0-.388.394c0,.036-.152.136-.337.221a1.647,1.647,0,0,0-.455.3,1.422,1.422,0,0,1-.6.286c-.48.144-.885.346-.885.441,0,.07-.312.162-.81.238a1.475,1.475,0,0,0-.911.342c-.212.235-.44.258-2.737.283-2.464.026-3-.021-3.325-.3a2.53,2.53,0,0,0-1.155-.394,1.083,1.083,0,0,1-.613-.24,1.771,1.771,0,0,0-.6-.288c-.226-.066-.48-.141-.563-.167a1.887,1.887,0,0,1-.421-.252,2.559,2.559,0,0,0-.521-.3.7.7,0,0,1-.353-.271.8.8,0,0,0-.356-.284,2.714,2.714,0,0,1-.66-.523l-.529-.539-.337-.338-.421-.423a1.824,1.824,0,0,1-.317-.449.911.911,0,0,0-.255-.336.671.671,0,0,1-.217-.312,1.946,1.946,0,0,0-.5-.808.58.58,0,0,1-.2-.322,4.549,4.549,0,0,0-.4-1.359,2.462,2.462,0,0,1-.273-1.3,3.4,3.4,0,0,0-.3-1.52,1.674,1.674,0,0,1-.011-1.781,2.9,2.9,0,0,0,.308-1.526,3.3,3.3,0,0,1,.292-1.434,7.27,7.27,0,0,0,.322-.992c.21-.811.19-.768.406-.88a.624.624,0,0,0,.27-.365,1.613,1.613,0,0,1,.319-.493,1.173,1.173,0,0,0,.322-.6c.1-.364.121-.4.334-.482a.809.809,0,0,0,.371-.317c.078-.124.173-.226.21-.226a1.66,1.66,0,0,0,.394-.325A6,6,0,0,1,70.61,18.49a1.444,1.444,0,0,0,.458-.319.929.929,0,0,1,.484-.268,1.232,1.232,0,0,0,.612-.364l.221-.239.854-.137a7.412,7.412,0,0,0,1.212-.283,3.652,3.652,0,0,1,1.266-.206c.5-.033.96-.07,1.024-.083a18.884,18.884,0,0,1,2.115.091m26-.006a4.324,4.324,0,0,1,1.09.172,6.235,6.235,0,0,0,1.426.33c.5.055.607.1.865.369a1.2,1.2,0,0,0,.569.334,1.24,1.24,0,0,1,.527.291c.438.461.907.216.993-.521l.04-.342.319-.141.318-.141H118.6l.121.154a16.99,16.99,0,0,1,.024,4.127c-.088.1-.213.107-1.43.107-1.517,0-1.582.019-1.693.5-.1.447-.072,12.11.034,12.362.2.49.177.482,1.641.482h1.3l.121.154a14.935,14.935,0,0,1-.006,4.158l-.127.136H114.8c-3.666,0-3.8,0-4.108-.119l-.317-.119-.04-.364c-.078-.713-.7-.971-1.053-.436-.071.108-.214.174-.6.275a1.758,1.758,0,0,0-.7.3,1.331,1.331,0,0,1-.594.259,2.854,2.854,0,0,0-1.2.418c-.3.256-.748.3-2.775.3-2.091,0-2.463-.044-2.766-.332a1.4,1.4,0,0,0-.747-.308,2.085,2.085,0,0,1-.716-.259,2.212,2.212,0,0,0-.88-.413,1.55,1.55,0,0,1-.58-.3,1.622,1.622,0,0,0-.49-.285.63.63,0,0,1-.4-.294,1.032,1.032,0,0,0-.286-.3,5.986,5.986,0,0,1-1.544-1.524,1.194,1.194,0,0,0-.342-.394.515.515,0,0,1-.235-.305.82.82,0,0,0-.406-.513c-.062-.02-.147-.2-.232-.484-.206-.7-.246-.793-.386-.95a1.769,1.769,0,0,1-.321-.885.763.763,0,0,0-.29-.535c-.273-.245-.265-.211-.348-1.535-.036-.579-.1-1.251-.147-1.492a2.1,2.1,0,0,1,0-.936,18.7,18.7,0,0,0,.2-2.165c0-.439.09-.726.251-.813.2-.108.27-.255.362-.78a1.692,1.692,0,0,1,.2-.627,2.735,2.735,0,0,0,.47-1.031c.113-.4.159-.483.3-.545a.714.714,0,0,0,.291-.336,1.243,1.243,0,0,1,.3-.392A1.324,1.324,0,0,0,95,20.6a2.988,2.988,0,0,1,.477-.6,7.369,7.369,0,0,1,1.13-1.012,1,1,0,0,0,.288-.265c.1-.128.226-.233.274-.233a1.43,1.43,0,0,0,.655-.366,1.381,1.381,0,0,1,.462-.255,1,1,0,0,0,.5-.326c.152-.189.226-.226.62-.308l.769-.16a4.6,4.6,0,0,0,.658-.2,3.512,3.512,0,0,1,1.082-.2,13.642,13.642,0,0,1,2.941,0m-90.147.908c0,.386.009.537.021.334s.011-.518,0-.7-.021-.018-.021.368m.044.923a1.827,1.827,0,0,0,.2.585c.117.232.249.515.294.628.075.19.078.192.047.029a4,4,0,0,0-.261-.644,3.906,3.906,0,0,1-.252-.614c-.024-.141-.025-.141-.033.016m.79,1.687a2.483,2.483,0,0,1,.331.433,3,3,0,0,0,.772.825,4.673,4.673,0,0,1,.469.4,4.148,4.148,0,0,0,1.2.872,3.279,3.279,0,0,1,.5.25c.3.207.349.217.181.037a1.472,1.472,0,0,0-.579-.316,1.418,1.418,0,0,1-.6-.335,1.756,1.756,0,0,0-.387-.3,1.173,1.173,0,0,1-.339-.289,1.552,1.552,0,0,0-.358-.324,2.7,2.7,0,0,1-.826-.881,1.883,1.883,0,0,0-.391-.462l-.221-.17.243.258m87.293.724a4.91,4.91,0,0,0-.7.223,4.08,4.08,0,0,1-.555.189,1.242,1.242,0,0,0-.661.34,1.828,1.828,0,0,1-.476.326,2.069,2.069,0,0,0-.517.362,1.359,1.359,0,0,1-.348.289,1.114,1.114,0,0,0-.391.4,1.212,1.212,0,0,1-.213.307,3.809,3.809,0,0,0-.554.838.931.931,0,0,1-.225.266,1.026,1.026,0,0,0-.331.649,2.586,2.586,0,0,1-.243.646,9.936,9.936,0,0,0,0,4.849,2.537,2.537,0,0,1,.239.591c.113.42.168.51.4.657a.761.761,0,0,1,.255.4,1.591,1.591,0,0,0,.365.573,2,2,0,0,1,.348.468.68.68,0,0,0,.267.292,2.5,2.5,0,0,1,.453.368,1.629,1.629,0,0,0,.634.4,1.066,1.066,0,0,1,.424.241c.084.156.314.258.844.372a2.533,2.533,0,0,1,.717.264,5.276,5.276,0,0,0,3.589-.034,2.038,2.038,0,0,1,.7-.236c.51-.095.713-.188.886-.407a.609.609,0,0,1,.322-.169,1.385,1.385,0,0,0,.823-.425.961.961,0,0,1,.384-.273.557.557,0,0,0,.354-.3.866.866,0,0,1,.294-.315c.434-.256.411.005.431-4.894a30.435,30.435,0,0,0-.073-4.624,2.66,2.66,0,0,0-1.029-.966A.427.427,0,0,1,109,22.4a1.509,1.509,0,0,0-.543-.373,2.18,2.18,0,0,1-.527-.319,1.424,1.424,0,0,0-.856-.386,4.672,4.672,0,0,1-.736-.234,9.2,9.2,0,0,0-3.5-.173m3.062.384c1.2.233,1.585.348,1.719.509a2.518,2.518,0,0,0,.482.291,3.553,3.553,0,0,1,.63.4,2.582,2.582,0,0,0,.439.31,3.543,3.543,0,0,1,.59.469l.368.353-.017,4.485-.017,4.485-.234.212a3.746,3.746,0,0,0-.4.437,1.186,1.186,0,0,1-.413.329,1.873,1.873,0,0,0-.439.282,1.627,1.627,0,0,1-.511.276,2.8,2.8,0,0,0-.619.307,4.66,4.66,0,0,1-1.525.52,4.383,4.383,0,0,1-3.143.061c-.241-.081-.617-.192-.835-.247a2.07,2.07,0,0,1-.585-.239,5.194,5.194,0,0,0-.619-.349,3.559,3.559,0,0,1-.673-.427,3.855,3.855,0,0,0-.4-.318,1.356,1.356,0,0,1-.32-.348c-.087-.136-.255-.366-.372-.511a3.577,3.577,0,0,1-.347-.527,2.193,2.193,0,0,0-.338-.468c-.174-.174-.23-.3-.37-.849a8.716,8.716,0,0,1-.033-5.032c.082-.29.163-.594.181-.678a.813.813,0,0,1,.177-.307,6.254,6.254,0,0,0,.413-.552A5.685,5.685,0,0,1,99.8,22.789c.159-.119.368-.289.464-.377a3.077,3.077,0,0,1,.468-.326,3.664,3.664,0,0,0,.479-.324c.235-.2.068-.153,2.242-.637a6.431,6.431,0,0,1,2.447.177M19.506,23.317a2.884,2.884,0,0,1,.514.294c.265.191.281.2.19.056a1.2,1.2,0,0,0-.725-.4l-.2-.036.226.087m1.325.7c.145.041.5.169.8.285s.774.275,1.067.353a4.1,4.1,0,0,1,.792.295,4.144,4.144,0,0,0,.869.3,9.045,9.045,0,0,1,1.042.317,8.906,8.906,0,0,0,1.254.331,13.882,13.882,0,0,1,1.4.35,6.643,6.643,0,0,0,.878.232,4,4,0,0,1,1.43.385,1.179,1.179,0,0,0,.361.168c.045,0,.015-.029-.065-.059a.477.477,0,0,1-.224-.229c-.094-.213-.248-.261-1.209-.38a2.534,2.534,0,0,1-.722-.147c-.081-.242-.683-.4-1.795-.466-.781-.048-1.061-.113-1.117-.26-.048-.126-.411-.249-.872-.3-.65-.065-.9-.145-1.038-.331s-.318-.259-.971-.345a1.648,1.648,0,0,1-.939-.3,2.63,2.63,0,0,0-1.06-.281c-.1,0-.064.027.117.078m10.386,3.106.79.149c.209.039.572.132.807.207s.722.19,1.083.257a5.147,5.147,0,0,1,1.457.422,4.887,4.887,0,0,0,.779.251,3.829,3.829,0,0,1,.749.252c.368.223.509.23.307.015-.177-.188-.29-.229-1-.358-.473-.086-.673-.165-.673-.263,0-.193-.4-.335-1.141-.408-.723-.072-.858-.1-.985-.235-.207-.214-.575-.275-2.058-.344l-.527-.024.41.078m-10.656.845a.737.737,0,0,0-.253.259c-.071.115-.158.21-.193.21-.058,0-.206.134-1.029.939a3.471,3.471,0,0,1-.433.366.8.8,0,0,0-.249.289c-.05.1-.057.139-.016.077a1.473,1.473,0,0,1,.207-.234l.468-.426.644-.585c.17-.154.439-.409.6-.566a1.039,1.039,0,0,1,.51-.33c.2-.038.2-.044.047-.046a.916.916,0,0,0-.3.047m1.7.209a2.836,2.836,0,0,0,.878.312c.064,0,.012-.035-.117-.077a3.7,3.7,0,0,1-.468-.2,1.921,1.921,0,0,0-.439-.158c-.16-.029-.128,0,.146.118m1.907.511a1.5,1.5,0,0,1,.425.2,1.488,1.488,0,0,0,.811.232c.041-.016,0-.032-.082-.035a1.962,1.962,0,0,1-.551-.21,2.467,2.467,0,0,0-.633-.235l-.239-.029.269.078m13.806.379a3.7,3.7,0,0,1,.614.283,4.014,4.014,0,0,0,.462.257,5.472,5.472,0,0,1,1.352,1.177c.021.065.051.106.066.09.13-.13-.987-1.223-1.384-1.355-.161-.054-.294-.131-.294-.171,0-.2-.336-.346-.936-.41l-.322-.034.441.163m-10.943.391a2.942,2.942,0,0,0,.985.247c.059-.016.04-.029-.05-.034a3.153,3.153,0,0,1-.556-.153c-.451-.16-.607-.184-.379-.06m1.243.308a1.03,1.03,0,0,0,.292,0c.072-.014,0-.025-.161-.025s-.22.012-.131.025m1.088.163a1.186,1.186,0,0,1,.38.2,1.023,1.023,0,0,0,.524.241c.038,0-.036-.055-.165-.121s-.351-.184-.5-.262a1.09,1.09,0,0,0-.381-.139c-.065,0,0,.04.136.084m-11.286.464a1.569,1.569,0,0,0-.292.244c-.087.109-.051.086.41-.27.2-.153.133-.139-.118.026m13.43.231c.1.039.3.13.448.2a2.506,2.506,0,0,0,.455.165c.469.094.466.335-.011.891a2.536,2.536,0,0,0-.288.439,1.24,1.24,0,0,1-.337.4,1.132,1.132,0,0,0-.319.367.793.793,0,0,1-.219.286,1.647,1.647,0,0,0-.323.408,1.127,1.127,0,0,1-.26.337,1.753,1.753,0,0,0-.326.424,6.738,6.738,0,0,1-.526.708,1.389,1.389,0,0,0-.255.345c0,.034.079-.048.176-.182a.815.815,0,0,1,.226-.243,2.185,2.185,0,0,0,.35-.454,8.657,8.657,0,0,1,.908-1.2,2.068,2.068,0,0,0,.308-.433.891.891,0,0,1,.3-.331,1.017,1.017,0,0,0,.319-.357,3.478,3.478,0,0,1,.336-.5c.463-.569.452-.841-.04-.963a5.119,5.119,0,0,1-.551-.211,2.255,2.255,0,0,0-.468-.166c-.043,0,0,.037.1.076m-13.985.319c-.272.251-.377.411-.14.215.176-.147.384-.385.331-.378a1.863,1.863,0,0,0-.191.164m-.5.583c-.084.087-.229.232-.322.322s-.293.3-.445.468a6.746,6.746,0,0,1-.755.764c-.137.106-.137.106.037.006a5.355,5.355,0,0,0,1.031-1.036,1.008,1.008,0,0,1,.279-.288,1.24,1.24,0,0,0,.285-.267c.114-.173.078-.163-.111.032M15.242,33.45a.949.949,0,0,1-.24.293,1.286,1.286,0,0,0-.271.3,4.352,4.352,0,0,1-.362.45,5.165,5.165,0,0,0-.4.5,4.689,4.689,0,0,1-.419.507c-.473.485-.735.824-.521.675a1.44,1.44,0,0,0,.334-.384,1.274,1.274,0,0,1,.3-.351,1.774,1.774,0,0,0,.354-.42,1.375,1.375,0,0,1,.286-.354,1.239,1.239,0,0,0,.276-.305,6.869,6.869,0,0,1,.438-.538c.239-.26.406-.516.363-.559-.012-.012-.073.073-.135.188m14.125,2.406c-.168.174-.31.417-.269.459.014.014.058-.052.1-.147a.426.426,0,0,1,.151-.2c.066-.025.242-.274.191-.269a1.4,1.4,0,0,0-.17.161m-16.69.775a.954.954,0,0,1-.24.265,1.806,1.806,0,0,0-.345.429,2.562,2.562,0,0,1-.3.417,2.854,2.854,0,0,0-.324.474,2.373,2.373,0,0,1-.336.473,1.293,1.293,0,0,0-.239.3c-.205.336-.374.4-.891.331-.238-.031-1.314-.081-2.392-.111s-2.342-.083-2.809-.118S3.42,39,2.772,38.974l-1.178-.052-.319.161-.319.161,2.228.038c5.771.1,6.027.107,6.391.194a1.2,1.2,0,0,0,1.233-.314l.388-.456a2.971,2.971,0,0,0,.319-.472,1.262,1.262,0,0,1,.218-.319,3.111,3.111,0,0,0,.335-.435,6.384,6.384,0,0,1,.491-.629,1.323,1.323,0,0,0,.254-.336c0-.1-.026-.074-.138.116m16.044.16a3.532,3.532,0,0,0-.435.569,2.5,2.5,0,0,1-.277.4,1.6,1.6,0,0,0-.229.382,2.441,2.441,0,0,1-.311.5,4.188,4.188,0,0,0-.4.623,1.471,1.471,0,0,1-.293.43,1.667,1.667,0,0,0-.3.489,4.072,4.072,0,0,1-.364.632,2.461,2.461,0,0,0-.277.468,1.613,1.613,0,0,1-.289.439c-.176.163-.349.461-.3.513.019.019.034,0,.034-.031a1.3,1.3,0,0,1,.241-.344,2.556,2.556,0,0,0,.355-.545,1.7,1.7,0,0,1,.252-.413,2.94,2.94,0,0,0,.34-.592,1.864,1.864,0,0,1,.328-.533,1.3,1.3,0,0,0,.273-.395A4.94,4.94,0,0,1,27.5,38.7a1.885,1.885,0,0,0,.29-.457,1.055,1.055,0,0,1,.191-.333c.1-.139.283-.408.395-.6a1.764,1.764,0,0,1,.332-.428c.11-.073.347-.369.3-.369a3.212,3.212,0,0,0-.287.278M0,39.321c0,.068.157.069.527,0,.258-.046.255-.047-.132-.054-.229,0-.395.017-.395.051m0,1.141c0,.06.061.088.2.088a.4.4,0,0,1,.307.125,1.085,1.085,0,0,0,.563.284c.041,0-.008-.046-.109-.1a4.567,4.567,0,0,1-.433-.292c-.264-.2-.524-.252-.524-.1m1.96.7a4.463,4.463,0,0,1,.546.233.975.975,0,0,0,.41.133C3,41.5,3,41.5,2.906,41.493a.739.739,0,0,1-.282-.131,2,2,0,0,0-.8-.282c-.051,0,.012.038.141.078m1.156.426a.479.479,0,0,0,.2,0c.057-.015.01-.027-.1-.027s-.159.012-.1.027m1.156.194a5.869,5.869,0,0,1,.848.258,1.813,1.813,0,0,0,.468.145c.078,0,.059-.021-.059-.055a2.272,2.272,0,0,1-.38-.166,4.263,4.263,0,0,0-1.241-.3c-.074,0,.09.053.363.113m1.945.508a.481.481,0,0,0,.205,0c.056-.015.01-.027-.1-.027s-.159.012-.1.027m.746.152a2.873,2.873,0,0,1,1.18.77c.062.136-.069.442-.19.442-.027,0-.08.059-.118.132-.051.1-.014.081.144-.07.469-.446.118-.991-.832-1.291-.507-.16-.657-.146-.184.017m18.138.054a1.248,1.248,0,0,1-.18.31,1.287,1.287,0,0,0-.265.6c.015.015.046-.034.069-.109a1.315,1.315,0,0,1,.176-.315,1.663,1.663,0,0,0,.3-.651c-.012-.012-.057.064-.1.17m-.642,1.382a1.2,1.2,0,0,1-.234.288,1.029,1.029,0,0,0-.234.3c0,.036.119-.068.263-.231.236-.265.318-.41.234-.41-.016,0-.029.022-.029.049M7.674,44.12a1.729,1.729,0,0,1-.233.4c-.207.264-.381.595-.336.64.018.018.033.006.033-.028a2.352,2.352,0,0,1,.264-.448c.26-.379.406-.673.358-.721-.013-.013-.053.058-.088.159m15.982,1.073a3.871,3.871,0,0,0-.47,1.241,1.583,1.583,0,0,0,.158-.4,4.583,4.583,0,0,1,.362-.8c.2-.328.264-.477.212-.47-.008,0-.126.194-.262.428m-16.688.253a2.809,2.809,0,0,1-.276.508c-.226.328-.268.5-.05.207a2.64,2.64,0,0,0,.428-.877c-.011-.034-.057.039-.1.161m16.017,1.233a.9.9,0,0,0-.189.307c-.033.128-.026.125.059-.029a1.944,1.944,0,0,1,.217-.307c.066-.072.107-.132.092-.132a.817.817,0,0,0-.179.161m-16.683.1a.559.559,0,0,1-.192.242.67.67,0,0,0-.205.3c-.152.354-.139.388.033.087a2.144,2.144,0,0,1,.235-.342c.109-.109.283-.433.25-.465-.013-.013-.067.07-.121.183m16.267.852a1.1,1.1,0,0,1-.214.351c-.17.193-.335.559-.278.616.015.015.046-.046.068-.136a1.222,1.222,0,0,1,.2-.368c.213-.268.311-.458.283-.544-.013-.038-.04,0-.061.082M5.7,47.875a2.71,2.71,0,0,1-.239.555c-.246.446-.258.547-.022.2a2.063,2.063,0,0,0,.331-.916c-.016-.016-.047.059-.07.165m16.241,1.084a2,2,0,0,1-.183.463.8.8,0,0,0-.106.38l.007.2.041-.205a1.688,1.688,0,0,1,.133-.38,1.9,1.9,0,0,0,.2-.71c-.014-.014-.057.1-.1.255m-16.908.584a.825.825,0,0,0-.048.344c.02.079.031.064.035-.053a.783.783,0,0,1,.069-.281.3.3,0,0,0,.041-.179c-.012-.035-.055.041-.1.169" transform="translate(0)" fill="#fff" fill-rule="evenodd"/>
    <path id="path0" d="M48.4,1.2c-.214.055-.534.141-.711.191a2.434,2.434,0,0,1-.878.056,3.31,3.31,0,0,0-.984.057,6.04,6.04,0,0,1-1.07.093,2.312,2.312,0,0,0-.859.095,3.839,3.839,0,0,1-.656.174c-.242.044-.558.1-.7.133s-.632.072-1.083.094c-.977.048-1.174.091-1.427.317a.759.759,0,0,1-.582.2,4.221,4.221,0,0,0-1.445.427,7.132,7.132,0,0,1-2.038.4c-.532.038-.6.056-.829.232a1.081,1.081,0,0,1-.592.234,1.2,1.2,0,0,0-.78.329,1.206,1.206,0,0,1-.667.225,2.03,2.03,0,0,0-.763.236,5.861,5.861,0,0,1-.819.348,1.55,1.55,0,0,0-.768.437,1.186,1.186,0,0,1-.76.386,1.442,1.442,0,0,0-.34.177,4.855,4.855,0,0,1-.64.324,2.837,2.837,0,0,0-.583.325,2.565,2.565,0,0,1-.468.288,2.038,2.038,0,0,0-.506.374,1.181,1.181,0,0,1-.439.3A1.323,1.323,0,0,0,26.356,8,1.072,1.072,0,0,1,26,8.245a1.778,1.778,0,0,0-.5.387,1.505,1.505,0,0,1-.42.347,3.105,3.105,0,0,0-.54.393c-.572.519-.757.679-.99.855a7.214,7.214,0,0,0-1.222,1.246,8.35,8.35,0,0,1-.623.782,5.989,5.989,0,0,0-.58.745,1.918,1.918,0,0,1-.335.421,1.32,1.32,0,0,0-.3.439,1.893,1.893,0,0,1-.228.429,3.132,3.132,0,0,0-.3.614,4.039,4.039,0,0,1-.371.73,2.286,2.286,0,0,0-.281.556c-.036.133-.1.349-.147.479a5.884,5.884,0,0,0-.082,1.416c0,1.525.1,1.981.528,2.532a3.49,3.49,0,0,1,.3.468,4.409,4.409,0,0,0,1,1.147,2.682,2.682,0,0,1,.409.31l.547.495a2.321,2.321,0,0,0,.644.4,4.172,4.172,0,0,1,.708.376,3.982,3.982,0,0,0,.69.368,3.649,3.649,0,0,1,.634.33,3.621,3.621,0,0,0,.8.358,4.528,4.528,0,0,1,.735.29,3.622,3.622,0,0,0,.819.257,4.776,4.776,0,0,1,.991.319A3.633,3.633,0,0,0,28.7,26a1.821,1.821,0,0,1,.907.318,1.659,1.659,0,0,0,.614.2c.225.035.594.114.819.176a8.264,8.264,0,0,0,.872.174,2.267,2.267,0,0,1,.527.112,3.484,3.484,0,0,0,1.175.3,2.866,2.866,0,0,1,1.369.409.993.993,0,0,0,.38.175,4.215,4.215,0,0,1,.533.084c.225.046.6.113.836.147a2.838,2.838,0,0,1,.7.2,3.8,3.8,0,0,0,1.689.324,1.02,1.02,0,0,1,.49.235,1.177,1.177,0,0,0,.606.269,2.893,2.893,0,0,1,1.078.429,3.366,3.366,0,0,0,.654.268,2.98,2.98,0,0,1,.684.3.737.737,0,0,0,.257.143,6.175,6.175,0,0,1,1.006.994,1.457,1.457,0,0,1-.3,1.488.411.411,0,0,0-.126.263,1.16,1.16,0,0,1-.318.793,1.935,1.935,0,0,0-.3.364.9.9,0,0,1-.308.292,1.968,1.968,0,0,0-.384.287,1.651,1.651,0,0,1-.569.309,1.493,1.493,0,0,0-.553.3,1.307,1.307,0,0,1-.566.294,1.946,1.946,0,0,0-.588.283,1.5,1.5,0,0,1-.794.384,2.135,2.135,0,0,0-.6.26,1.622,1.622,0,0,1-.6.234c-.8.153-1.068.244-1.276.441a1.593,1.593,0,0,1-.509.293.67.67,0,0,0-.427.3.95.95,0,0,1-.534.362c-.285.114-.428.205-.465.3a6.329,6.329,0,0,1-.375.624,3.621,3.621,0,0,0-.323.549,2.183,2.183,0,0,1-.43.82,2.61,2.61,0,0,0-.323.5,1.075,1.075,0,0,1-.293.38c-.1.072-.183.167-.183.212a2.426,2.426,0,0,1-.416.933,2.541,2.541,0,0,0-.35.741,2.768,2.768,0,0,1-.3.673l-.117.126.3.1a2.891,2.891,0,0,0,1.131.065c.457-.019,1.371-.055,2.031-.08A4.063,4.063,0,0,0,36.441,44a2.8,2.8,0,0,1,.878-.156c.379-.03.886-.082,1.128-.116s.98-.081,1.642-.106c1.2-.044,1.2-.044,1.559-.23a4.626,4.626,0,0,1,1.65-.4,4.234,4.234,0,0,0,.614-.1,4.4,4.4,0,0,1,.545-.1,2.541,2.541,0,0,0,.637-.181,5.019,5.019,0,0,1,1.339-.265c.959-.12,1.094-.151,1.339-.306a1.689,1.689,0,0,1,.549-.213,6.557,6.557,0,0,0,1.269-.376,4.334,4.334,0,0,1,1.183-.377,3.084,3.084,0,0,0,.919-.321,2.492,2.492,0,0,1,1.155-.332c.311-.034.578-.183.578-.323,0-.07.283-.216.688-.355a1.829,1.829,0,0,0,.512-.28,2.181,2.181,0,0,1,.919-.383.7.7,0,0,0,.293-.172,3.033,3.033,0,0,1,.543-.356,2.765,2.765,0,0,0,.568-.39,1.508,1.508,0,0,1,.431-.288,1.174,1.174,0,0,0,.388-.264,1.236,1.236,0,0,1,.343-.263,1.191,1.191,0,0,0,.355-.289,2.227,2.227,0,0,1,.455-.389,6.923,6.923,0,0,0,1.072-.948l.431-.439a3.478,3.478,0,0,0,.456-.581,1.559,1.559,0,0,1,.328-.4,1.357,1.357,0,0,0,.314-.429.666.666,0,0,1,.324-.378c.139-.058.195-.13.243-.316a4.064,4.064,0,0,1,.408-1.035,2.813,2.813,0,0,0,.249-.59c.108-.346.171-.454.319-.548.239-.151.238-.149.336-1.048a3.9,3.9,0,0,1,.265-1.205c.244-.588.3-1.131.125-1.224s-.3-.375-.364-.817c-.081-.6-.171-.871-.323-.971a1.355,1.355,0,0,1-.4-.688,4.674,4.674,0,0,0-1.268-1.426,2.248,2.248,0,0,1-.5-.417,1.043,1.043,0,0,0-.351-.285.925.925,0,0,1-.326-.258.664.664,0,0,0-.367-.237,1.633,1.633,0,0,1-.847-.379,1.146,1.146,0,0,0-.387-.236,1.745,1.745,0,0,1-.787-.434.85.85,0,0,0-.615-.314,1.718,1.718,0,0,1-.832-.293,1.726,1.726,0,0,0-.689-.236,2.585,2.585,0,0,1-1.17-.444c-.108-.1-.29-.151-1.27-.35a1.4,1.4,0,0,1-.542-.234.979.979,0,0,0-.574-.207,7.7,7.7,0,0,1-1.953-.441,3.964,3.964,0,0,0-.907-.263,2.34,2.34,0,0,1-1.149-.361c-.261-.2-.443-.242-1.329-.342a3.787,3.787,0,0,1-1.493-.35,3.371,3.371,0,0,0-.79-.2,2.2,2.2,0,0,1-1.226-.465,1.022,1.022,0,0,0-.369-.121,4.8,4.8,0,0,1-1.354-.44,2.872,2.872,0,0,0-.642-.257,1.415,1.415,0,0,1-.808-.415.925.925,0,0,0-.334-.2.65.65,0,0,1-.4-.345.827.827,0,0,0-.411-.377.8.8,0,0,1-.374-.319,1.078,1.078,0,0,0-.235-.3,2.683,2.683,0,0,1,.011-2.562A1.779,1.779,0,0,0,38.7,11a1.117,1.117,0,0,1,.3-.511,2.206,2.206,0,0,0,.381-.565,1.41,1.41,0,0,1,.344-.487A1,1,0,0,0,40,9.148a.646.646,0,0,1,.319-.258.6.6,0,0,0,.368-.372.788.788,0,0,1,.339-.384.861.861,0,0,0,.3-.276.9.9,0,0,1,.323-.284,3.59,3.59,0,0,0,.516-.355,2.37,2.37,0,0,1,.554-.338,1.381,1.381,0,0,0,.439-.282,1.554,1.554,0,0,1,.631-.337,2.507,2.507,0,0,0,.629-.3,1.527,1.527,0,0,1,.627-.24c.791-.165.939-.215,1.079-.364.2-.218.386-.294.948-.391a1.433,1.433,0,0,0,.683-.234c.245-.206.79-.31,2.367-.45a3.883,3.883,0,0,0,1.17-.228,6.513,6.513,0,0,1,2.263-.325c.654-.045,1.413-.108,1.686-.14A46.037,46.037,0,0,1,62.876,3.4c.418.042,1.222.1,1.785.125s1.182.079,1.375.116.891.088,1.551.114c1.376.054,1.521.09,1.521.376,0,.476.805.594,1.186.174.169-.186-.413-.484-.944-.484-.081,0-.134-.048-.158-.145-.039-.154-.027-.15-.815-.268a4.342,4.342,0,0,1-1.354-.379,1.266,1.266,0,0,0-.424-.147,4.861,4.861,0,0,1-1.557-.423,5.064,5.064,0,0,0-1.968-.395,4.2,4.2,0,0,1-.724-.091c-.225-.05-.57-.112-.766-.139a2,2,0,0,1-.492-.12,3.147,3.147,0,0,0-.725-.121c-.325-.027-.842-.076-1.147-.11s-.838-.061-1.183-.061a3.534,3.534,0,0,1-.878-.084c-.6-.2-.91-.214-4.635-.226A24.02,24.02,0,0,0,48.4,1.2m31.15,16.11c-.064.013-.525.05-1.024.083a3.651,3.651,0,0,0-1.266.206,7.413,7.413,0,0,1-1.212.283l-.854.137-.221.239a1.232,1.232,0,0,1-.612.364.929.929,0,0,0-.484.268,1.444,1.444,0,0,1-.458.319,6,6,0,0,0-1.452,1.079,3.183,3.183,0,0,1-.394.325,1.024,1.024,0,0,0-.21.226.809.809,0,0,1-.371.317c-.213.085-.236.118-.334.482a1.173,1.173,0,0,1-.322.6,1.613,1.613,0,0,0-.319.493.624.624,0,0,1-.27.365c-.216.112-.2.069-.406.88a7.273,7.273,0,0,1-.322.992,3.3,3.3,0,0,0-.292,1.434,2.9,2.9,0,0,1-.308,1.526,1.673,1.673,0,0,0,.011,1.781,3.4,3.4,0,0,1,.3,1.52A2.462,2.462,0,0,0,69,32.53a4.55,4.55,0,0,1,.4,1.359.58.58,0,0,0,.2.322,1.946,1.946,0,0,1,.5.808.671.671,0,0,0,.217.312.91.91,0,0,1,.255.336,1.824,1.824,0,0,0,.317.449l.421.423.337.338.529.539a2.714,2.714,0,0,0,.66.523.8.8,0,0,1,.356.284.7.7,0,0,0,.353.271,2.56,2.56,0,0,1,.521.3,1.887,1.887,0,0,0,.421.252c.084.026.337.1.563.167a1.771,1.771,0,0,1,.6.288,1.083,1.083,0,0,0,.613.24,2.529,2.529,0,0,1,1.155.394c.33.277.861.325,3.325.3,2.3-.025,2.525-.048,2.737-.283a1.475,1.475,0,0,1,.911-.342c.5-.076.81-.167.81-.238,0-.1.405-.3.885-.441a1.422,1.422,0,0,0,.6-.286,1.647,1.647,0,0,1,.455-.3c.185-.086.337-.185.337-.221a.822.822,0,0,1,.388-.394,9.115,9.115,0,0,0,1.265-1.214,1.118,1.118,0,0,0,.278-.4.721.721,0,0,1,.223-.315,1.158,1.158,0,0,0,.33-.574,1.068,1.068,0,0,1,.33-.564.911.911,0,0,0,.259-.367,3.666,3.666,0,0,1,.411-1.019c.217-.315.283-1.412.092-1.515a35.2,35.2,0,0,0-4.888.055c-.153.078-.183.142-.277.585-.137.645-.2.8-.409.943a1.345,1.345,0,0,0-.316.41.774.774,0,0,1-.306.357,2.046,2.046,0,0,0-.451.372,1,1,0,0,1-.627.378.84.84,0,0,0-.486.243c-.185.208-.3.253-.918.361a6.613,6.613,0,0,0-.865.218,3.489,3.489,0,0,1-1.931.011,4.9,4.9,0,0,0-.936-.22,2.188,2.188,0,0,1-1.221-.4,1.462,1.462,0,0,0-.486-.218,1.328,1.328,0,0,1-.634-.349,2.2,2.2,0,0,0-.444-.339.939.939,0,0,1-.344-.339,1.408,1.408,0,0,0-.379-.4,1.1,1.1,0,0,1-.414-.527,1.965,1.965,0,0,0-.316-.5,1.2,1.2,0,0,1-.244-.453,1.34,1.34,0,0,0-.312-.541A1.386,1.386,0,0,1,73.5,30.6a3.222,3.222,0,0,0-.178-1.011,2.358,2.358,0,0,1,.031-1.6,2.551,2.551,0,0,0,.15-.849c.055-.792.067-.826.375-1.119a.766.766,0,0,0,.286-.488,1.29,1.29,0,0,1,.381-.766.986.986,0,0,0,.242-.385.7.7,0,0,1,.326-.426,1.075,1.075,0,0,0,.33-.3,1.021,1.021,0,0,1,.34-.3,1.4,1.4,0,0,0,.369-.284,2.224,2.224,0,0,1,.595-.383,1.835,1.835,0,0,0,.477-.277c.1-.161.349-.269.868-.368a3.9,3.9,0,0,0,.745-.21,7.125,7.125,0,0,1,3.41.031c.257.079.651.19.875.247a1.314,1.314,0,0,1,.644.319,2.645,2.645,0,0,0,.484.342.863.863,0,0,1,.327.277.873.873,0,0,0,.328.278.975.975,0,0,1,.346.292,2.242,2.242,0,0,0,.283.354,2.477,2.477,0,0,1,.43,1.052c0,.038.093.118.206.179a1.034,1.034,0,0,1,.328.309l.122.2,2.056-.017c2.23-.019,2.359-.037,2.443-.339s.059-7.283-.026-7.4c-.124-.169-.52-.2-2.565-.2l-1.912,0-.059.19a3.549,3.549,0,0,0-.095.483c-.1.778-.473.979-.888.475a1.084,1.084,0,0,0-.433-.3,1.683,1.683,0,0,1-.5-.315,1.508,1.508,0,0,0-1.024-.418,5.357,5.357,0,0,1-.87-.237,3.777,3.777,0,0,0-1.082-.224,18.884,18.884,0,0,0-2.115-.091m26.243.01a8.025,8.025,0,0,0-2.15.27,4.6,4.6,0,0,1-.658.2l-.769.16c-.394.082-.468.119-.62.308a1,1,0,0,1-.5.326,1.381,1.381,0,0,0-.462.255,1.43,1.43,0,0,1-.655.366c-.048,0-.171.1-.274.233a1,1,0,0,1-.288.265,7.369,7.369,0,0,0-1.13,1.012,2.988,2.988,0,0,0-.477.6,1.324,1.324,0,0,1-.31.391,1.243,1.243,0,0,0-.3.392.714.714,0,0,1-.291.336c-.139.061-.185.144-.3.545a2.735,2.735,0,0,1-.47,1.031,1.692,1.692,0,0,0-.2.627c-.092.525-.16.673-.362.78-.161.087-.25.374-.251.813a18.7,18.7,0,0,1-.2,2.165,2.1,2.1,0,0,0,0,.936c.045.242.111.913.147,1.492.083,1.325.075,1.29.348,1.535a.763.763,0,0,1,.29.535,1.769,1.769,0,0,0,.321.885c.14.157.179.254.386.95.085.288.17.464.232.484a.82.82,0,0,1,.406.513.515.515,0,0,0,.235.305,1.194,1.194,0,0,1,.342.394,5.986,5.986,0,0,0,1.544,1.524,1.032,1.032,0,0,1,.286.3.63.63,0,0,0,.4.294,1.622,1.622,0,0,1,.49.285,1.55,1.55,0,0,0,.58.3,2.212,2.212,0,0,1,.88.413,2.085,2.085,0,0,0,.716.259,1.4,1.4,0,0,1,.747.308c.3.288.675.332,2.766.332,2.027,0,2.471-.048,2.775-.3a2.853,2.853,0,0,1,1.2-.418,1.331,1.331,0,0,0,.594-.259,1.758,1.758,0,0,1,.7-.3c.382-.1.525-.167.6-.275.351-.535.975-.277,1.053.436l.04.364.317.119c.307.115.442.119,4.108.119H121.4l.127-.136a14.935,14.935,0,0,0,.006-4.158l-.121-.154h-1.3c-1.465,0-1.437.008-1.641-.482-.105-.252-.137-11.915-.034-12.362.11-.478.176-.5,1.693-.5,1.218,0,1.342-.009,1.43-.107a16.989,16.989,0,0,0-.024-4.127l-.121-.154h-7.595l-.318.141-.319.141-.04.342c-.087.736-.555.981-.993.521a1.24,1.24,0,0,0-.527-.291,1.2,1.2,0,0,1-.569-.334c-.258-.27-.361-.314-.865-.369a6.234,6.234,0,0,1-1.426-.33,13.277,13.277,0,0,0-2.963-.246m36.172.079a4.662,4.662,0,0,0-1.258.2,11.876,11.876,0,0,1-1.429.291c-.914.134-.959.147-1.171.338a1.622,1.622,0,0,1-.815.4,1.519,1.519,0,0,0-.488.266,1.841,1.841,0,0,1-.575.3,1.565,1.565,0,0,0-.547.29c-.37.332-1,.433-1.247.2-.139-.131-.146-.167-.146-.827a2.175,2.175,0,0,0-.1-.9l-.1-.207h-8.276l-.064.184a29.027,29.027,0,0,0,.009,4.1c.064.085.266.1,1.656.114,1.8.019,1.836.027,1.97.47.059.2.075,1.508.075,6.188v5.939l-.126.273c-.224.484-.237.487-1.978.492l-1.524,0-.072.142a28.579,28.579,0,0,0-.006,4.118l.068.149,6.646,0c6.828,0,7.221-.015,7.357-.2a21.947,21.947,0,0,0-.013-4.036c-.085-.113-.176-.118-2.558-.148-2.751-.035-2.646-.018-2.854-.447-.116-.238-.118-.351-.123-5.485,0-6.009-.063-5.445.579-5.655a1.968,1.968,0,0,0,.514-.236,4.4,4.4,0,0,1,2-.462,2.18,2.18,0,0,0,.79-.174,4.876,4.876,0,0,1,1.951-.358,15.492,15.492,0,0,0,1.58-.178c.322-.064.8-.131,1.068-.151l.483-.036V17.337l-.249.009c-.137,0-.6.029-1.029.053M108.36,21.61a3.363,3.363,0,0,1,.789.2,4.672,4.672,0,0,0,.736.234,1.424,1.424,0,0,1,.856.386,2.18,2.18,0,0,0,.527.319,1.509,1.509,0,0,1,.543.373.427.427,0,0,0,.245.184,2.66,2.66,0,0,1,1.029.966,30.44,30.44,0,0,1,.073,4.624c-.02,4.9,0,4.637-.431,4.894a.866.866,0,0,0-.294.315.557.557,0,0,1-.354.3.961.961,0,0,0-.384.273,1.385,1.385,0,0,1-.823.425.609.609,0,0,0-.322.169c-.173.219-.376.312-.886.407a2.038,2.038,0,0,0-.7.236,5.276,5.276,0,0,1-3.589.034,2.533,2.533,0,0,0-.717-.264c-.53-.115-.76-.217-.844-.372a1.066,1.066,0,0,0-.424-.241,1.629,1.629,0,0,1-.634-.4,2.5,2.5,0,0,0-.453-.368.68.68,0,0,1-.267-.292,2,2,0,0,0-.348-.468,1.59,1.59,0,0,1-.365-.573.761.761,0,0,0-.255-.4c-.23-.147-.284-.237-.4-.657a2.537,2.537,0,0,0-.239-.591,9.936,9.936,0,0,1,0-4.849,2.587,2.587,0,0,0,.243-.646,1.026,1.026,0,0,1,.331-.649.931.931,0,0,0,.225-.266,3.809,3.809,0,0,1,.554-.838,1.212,1.212,0,0,0,.213-.307,1.115,1.115,0,0,1,.391-.4,1.359,1.359,0,0,0,.348-.289,2.069,2.069,0,0,1,.517-.362,1.828,1.828,0,0,0,.476-.326,1.242,1.242,0,0,1,.661-.34,4.08,4.08,0,0,0,.555-.189,7.96,7.96,0,0,1,3.414-.248M4.333,40.143c0,.372.883.816,1.883.949a13,13,0,0,1,2.242.45,9.291,9.291,0,0,0,1.3.282,4.161,4.161,0,0,1,.786.153,2.534,2.534,0,0,0,.455.145l.325.075.352-.332a2.424,2.424,0,0,0,.7-.888,4.04,4.04,0,0,1,.3-.5l.138-.181-.424-.093a15.33,15.33,0,0,0-2.355-.126c-1.062-.018-2.78-.05-3.818-.071l-1.887-.039v.181" transform="translate(-2.812 -0.719)" fill="#fff" stroke="#fff" stroke-width="1" fill-rule="evenodd"/>
    <path id="path1" d="M31.609,7.965a1.08,1.08,0,0,1-.811.357c-.636.092-.8.158-.94.386-.072.113-.108.192-.079.174a3.331,3.331,0,0,1,.512-.095,1.2,1.2,0,0,0,.664-.225,1.189,1.189,0,0,1,.76-.326c.314-.04.761-.265.761-.383,0-.152-.7-.062-.866.11m34.479.746A8.024,8.024,0,0,1,65.33,9c-.322.108-.734.248-.915.312a6.878,6.878,0,0,1-.929.21,2.195,2.195,0,0,0-1.172.444,2.243,2.243,0,0,1-.732.234,4.359,4.359,0,0,0-.993.318,4.074,4.074,0,0,1-1.028.318,2.417,2.417,0,0,0-1.115.361,3.246,3.246,0,0,1-.754.264,2.63,2.63,0,0,0-.838.322,2.9,2.9,0,0,1-.9.342,4.417,4.417,0,0,0-.845.285,3.9,3.9,0,0,1-.78.266c-.744.185-.846.226-1.019.412a1.605,1.605,0,0,1-.644.3,3.66,3.66,0,0,0-.756.319,2.384,2.384,0,0,1-.644.256,2.668,2.668,0,0,0-1.092.386,2.482,2.482,0,0,1-.613.3,2.819,2.819,0,0,0-.654.318,2.556,2.556,0,0,1-.682.3,3.859,3.859,0,0,0-.713.282,2.889,2.889,0,0,1-.892.355,1.621,1.621,0,0,0-.527.259,2.177,2.177,0,0,1-.834.442,1.741,1.741,0,0,0-.477.254,2.239,2.239,0,0,1-.624.3,3.573,3.573,0,0,0-.761.35,3.19,3.19,0,0,1-.6.3,2.167,2.167,0,0,0-.527.292,4.786,4.786,0,0,1-.607.377c-.362.181-.358.189.219.409a2.615,2.615,0,0,1,.614.323c.2.174.431.242,1.278.378a6.048,6.048,0,0,1,.944.232A9.491,9.491,0,0,0,46,20.111a4.5,4.5,0,0,1,1.308.351,2.77,2.77,0,0,0,1.244.321,1.346,1.346,0,0,0,1.222-.405,1.511,1.511,0,0,1,.393-.3,1.9,1.9,0,0,0,.388-.266,3.768,3.768,0,0,1,.42-.328,13.772,13.772,0,0,0,1.183-.923,3.013,3.013,0,0,1,.539-.363.959.959,0,0,0,.331-.233,1.2,1.2,0,0,1,.36-.267,3.258,3.258,0,0,0,.546-.4,2.287,2.287,0,0,1,.517-.35,1.614,1.614,0,0,0,.409-.263,1.452,1.452,0,0,1,.345-.241,2.749,2.749,0,0,0,.5-.37,3.233,3.233,0,0,1,.614-.425,2,2,0,0,0,.461-.306,1.49,1.49,0,0,1,.41-.263,3.372,3.372,0,0,0,.591-.366,4.081,4.081,0,0,1,.539-.358.853.853,0,0,0,.3-.236,1.274,1.274,0,0,1,.426-.286,2.874,2.874,0,0,0,.512-.3,1.555,1.555,0,0,1,.684-.347.786.786,0,0,0,.435-.306,1.239,1.239,0,0,1,.4-.327,2.865,2.865,0,0,0,.5-.31,2.951,2.951,0,0,1,.631-.35,1.588,1.588,0,0,0,.439-.23,2.7,2.7,0,0,1,.773-.442,1.3,1.3,0,0,0,.38-.265,2.314,2.314,0,0,1,.611-.375,2.154,2.154,0,0,0,.5-.267,1.592,1.592,0,0,1,.451-.228,1.412,1.412,0,0,0,.778-.453,1.235,1.235,0,0,1,.468-.3c.4-.14.531-.374.243-.424a1.356,1.356,0,0,1-.4-.158c-.189-.117-.215-.119-.376-.035m-37.006.295a2.189,2.189,0,0,0-.634.183,1.287,1.287,0,0,1-.706.3,1.441,1.441,0,0,0-1,.446c-.1.164-.19.216-.541.319a1.345,1.345,0,0,0-.581.29,1.57,1.57,0,0,1-.661.32,1.448,1.448,0,0,0-.629.3,1.885,1.885,0,0,1-.492.322,1,1,0,0,0-.4.28,2.308,2.308,0,0,1-.852.472.474.474,0,0,0-.187.154,1.49,1.49,0,0,1-.436.291,1.128,1.128,0,0,0-.4.289,1.755,1.755,0,0,1-.418.356,4.058,4.058,0,0,0-.532.411,2.043,2.043,0,0,1-.389.3,2.927,2.927,0,0,0-.5.418c-.18.181-.357.355-.393.387a3.682,3.682,0,0,0-.248.275.956.956,0,0,1-.288.251.733.733,0,0,0-.251.252,1.186,1.186,0,0,1-.356.332.709.709,0,0,0-.283.288,2.113,2.113,0,0,1-.309.442,5.484,5.484,0,0,0-.425.561,1.916,1.916,0,0,1-.356.418,1.484,1.484,0,0,0-.328.466,1.75,1.75,0,0,1-.264.429,2.225,2.225,0,0,0-.292.564,2.283,2.283,0,0,1-.333.612,1.99,1.99,0,0,0-.325.724,6.763,6.763,0,0,1-.335.88,4.724,4.724,0,0,0,.014,2.619,4.427,4.427,0,0,1,.3.673,1.305,1.305,0,0,0,.336.57,2.1,2.1,0,0,1,.351.439,2.682,2.682,0,0,0,.807.852,1.552,1.552,0,0,1,.358.324,1.173,1.173,0,0,0,.339.289,1.768,1.768,0,0,1,.387.3,1.439,1.439,0,0,0,.585.333,2.1,2.1,0,0,1,.613.328,1.061,1.061,0,0,0,.436.233,1.263,1.263,0,0,1,.744.4c.115.175.3.245.882.338a1.77,1.77,0,0,1,.669.216,1.69,1.69,0,0,0,.958.306c.644.085.839.152.955.328.126.193.29.249,1,.342.611.08.822.153.945.327a1.517,1.517,0,0,0,.99.232H27l-.2-.145a1.892,1.892,0,0,0-.938-.324,3.557,3.557,0,0,1-.79-.265,4.834,4.834,0,0,0-.991-.319,3.622,3.622,0,0,1-.819-.257,4.527,4.527,0,0,0-.735-.29,3.621,3.621,0,0,1-.8-.358,3.648,3.648,0,0,0-.634-.33,3.982,3.982,0,0,1-.69-.368,4.172,4.172,0,0,0-.708-.376,2.321,2.321,0,0,1-.644-.4l-.547-.495a2.682,2.682,0,0,0-.409-.31,4.409,4.409,0,0,1-1-1.147,3.49,3.49,0,0,0-.3-.468c-.433-.551-.528-1.008-.528-2.532a5.884,5.884,0,0,1,.082-1.416c.045-.13.111-.345.147-.479a2.285,2.285,0,0,1,.281-.556,4.039,4.039,0,0,0,.371-.73,3.132,3.132,0,0,1,.3-.614,1.893,1.893,0,0,0,.228-.429,1.32,1.32,0,0,1,.3-.439,1.918,1.918,0,0,0,.335-.421,5.989,5.989,0,0,1,.58-.745,8.351,8.351,0,0,0,.623-.782,7.214,7.214,0,0,1,1.222-1.246c.233-.176.419-.335.99-.855a3.105,3.105,0,0,1,.54-.393,1.505,1.505,0,0,0,.42-.347,1.778,1.778,0,0,1,.5-.387,1.072,1.072,0,0,0,.353-.243,1.323,1.323,0,0,1,.656-.344,1.181,1.181,0,0,0,.439-.3,2.039,2.039,0,0,1,.506-.374,2.565,2.565,0,0,0,.468-.288A2.837,2.837,0,0,1,26.2,10.7a4.855,4.855,0,0,0,.64-.324,1.442,1.442,0,0,1,.34-.177,1.184,1.184,0,0,0,.758-.384,1.655,1.655,0,0,1,.807-.454c.479-.167,1.074-.46.9-.441-.032,0-.282.044-.555.089m-.644,22.119c0,.148.15.2.735.283.759.1.951.105.7.016a1.135,1.135,0,0,1-.239-.112,2.255,2.255,0,0,0-.527-.112c-.255-.034-.509-.076-.565-.093s-.1-.008-.1.018m1.928.556a.439.439,0,0,1,.119.2c0,.128.369.208,1.112.24l.731.031-.2-.156a2.657,2.657,0,0,0-1.286-.382c-.637-.078-.611-.081-.472.068m3.023.777c.041.108.13.136.668.205.672.087.773.08.553-.04-.394-.215-1.287-.336-1.221-.165m2.09.586c.09.193.372.291,1.2.415a.893.893,0,0,1,.48.241c.2.178.291.213.769.29.569.091.8.194.85.376.018.067.137.145.316.2a2.1,2.1,0,0,1,.79.594,1.8,1.8,0,0,1,.733,1.448c.068.552.071.559.185.457a1.463,1.463,0,0,0,.289-1.479,6.175,6.175,0,0,0-1.006-.994.737.737,0,0,1-.257-.143,2.98,2.98,0,0,0-.684-.3,3.366,3.366,0,0,1-.654-.268,2.893,2.893,0,0,0-1.078-.429,1.177,1.177,0,0,1-.606-.269,1.02,1.02,0,0,0-.49-.235c-.1,0-.347-.017-.545-.029l-.36-.024.068.145m-14.666-.029a1.039,1.039,0,0,0-.51.33c-.158.158-.427.413-.6.566s-.457.424-.638.6a1.678,1.678,0,0,1-.4.32c-.037,0-.148.132-.248.294a1.233,1.233,0,0,1-.347.38,1.236,1.236,0,0,0-.331.306,2.225,2.225,0,0,1-.3.329,1.7,1.7,0,0,0-.281.341,1.247,1.247,0,0,1-.345.348.591.591,0,0,0-.238.24,5.994,5.994,0,0,1-1.075,1.1c-.033,0-.1.1-.149.215a2.1,2.1,0,0,1-.339.483,6.629,6.629,0,0,0-.446.543,1.239,1.239,0,0,1-.276.305,1.375,1.375,0,0,0-.286.354,1.774,1.774,0,0,1-.354.42,1.274,1.274,0,0,0-.3.351,1.43,1.43,0,0,1-.315.373.732.732,0,0,0-.23.312,1.071,1.071,0,0,1-.245.365,4.574,4.574,0,0,0-.46.582,3.868,3.868,0,0,1-.378.494,1.265,1.265,0,0,0-.219.32,4.786,4.786,0,0,1-.749.964.722.722,0,0,1-.453.265c-.282.048-.476.253-.747.793a2.411,2.411,0,0,1-.7.888l-.352.332-.325-.075a2.534,2.534,0,0,1-.455-.145,4.161,4.161,0,0,0-.786-.153,9.291,9.291,0,0,1-1.3-.282A13,13,0,0,0,3.4,45.42c-.987-.131-1.883-.578-1.883-.939,0-.2-.191-.222-1.038-.1L0,44.444v.489c0,.474,0,.488.138.488a.923.923,0,0,1,.389.19l.345.261a4.315,4.315,0,0,0,.79.217,3.133,3.133,0,0,1,.919.295,2.5,2.5,0,0,0,1,.265,4.936,4.936,0,0,1,1.628.388,3.846,3.846,0,0,0,1.024.252c1.1.167,1.637.4,1.9.844.154.253.145.3-.112.581a1.61,1.61,0,0,0-.288.434,3.442,3.442,0,0,1-.33.576,2.793,2.793,0,0,0-.332.632,1.8,1.8,0,0,1-.367.734,1.726,1.726,0,0,0-.238.464,2.385,2.385,0,0,1-.3.566A2.027,2.027,0,0,0,5.74,53a2.605,2.605,0,0,1-.266.614,3.689,3.689,0,0,0-.425,1.214l-.029.19H21.65v-.183a.839.839,0,0,1,.111-.365A3.451,3.451,0,0,0,22,53.818a1.642,1.642,0,0,1,.4-.839,2.483,2.483,0,0,0,.277-.614,2.33,2.33,0,0,1,.315-.653,1.838,1.838,0,0,0,.286-.612,4.184,4.184,0,0,1,.36-.822,4.271,4.271,0,0,0,.326-.66,1.119,1.119,0,0,1,.27-.423,1.449,1.449,0,0,0,.345-.619c.187-.524.2-.559.345-.726a2.76,2.76,0,0,0,.262-.508,1.987,1.987,0,0,1,.337-.556,1.721,1.721,0,0,0,.305-.458,2.461,2.461,0,0,1,.277-.468,4.072,4.072,0,0,0,.364-.632,1.667,1.667,0,0,1,.3-.489,1.471,1.471,0,0,0,.293-.43,4.188,4.188,0,0,1,.4-.623,2.441,2.441,0,0,0,.311-.5,1.592,1.592,0,0,1,.233-.385,2.723,2.723,0,0,0,.295-.43,2.958,2.958,0,0,1,.426-.551,1.883,1.883,0,0,0,.359-.5,1.64,1.64,0,0,1,.286-.431.593.593,0,0,0,.172-.242,1.241,1.241,0,0,1,.255-.359,6.738,6.738,0,0,0,.526-.708,1.753,1.753,0,0,1,.326-.424,1.127,1.127,0,0,0,.26-.337,1.647,1.647,0,0,1,.323-.408.793.793,0,0,0,.219-.286,1.132,1.132,0,0,1,.319-.367,1.24,1.24,0,0,0,.337-.4,2.536,2.536,0,0,1,.288-.439c.48-.56.48-.8,0-.892a3.164,3.164,0,0,1-.558-.214,4.38,4.38,0,0,0-1.016-.293,2.268,2.268,0,0,1-1.165-.406,4.323,4.323,0,0,0-1.556-.346,4.449,4.449,0,0,1-.819-.184,10.724,10.724,0,0,0-1.268-.29c-1.185-.21-1.2-.215-1.449-.384a2.919,2.919,0,0,0-.976-.29,5.714,5.714,0,0,1-1.138-.32,4.5,4.5,0,0,0-1.325-.345c-.054,0-.2.026-.321.05" transform="translate(0 -5.047)" fill="#fff" stroke="#fff" stroke-width="1" fill-rule="evenodd"/>
  </g>
</svg>
