<svg xmlns="http://www.w3.org/2000/svg" width="60" height="51" viewBox="0 0 60 51">
  <g id="main-menu" transform="translate(-593 -55)">
    <g id="Polygon_3" data-name="Polygon 3" transform="translate(593 55)" fill="#fff">
      <path d="M 44.71402740478516 50.5 L 15.28597736358643 50.5 L 0.5800954103469849 25.5 L 15.28597736358643 0.5 L 44.71402740478516 0.5 L 59.41990661621094 25.5 L 44.71402740478516 50.5 Z" stroke="none"/>
      <path d="M 15.57194519042969 1 L 1.160179138183594 25.5 L 15.57194519042969 50 L 44.42806243896484 50 L 58.83982467651367 25.5 L 44.42806243896484 1 L 15.57194519042969 1 M 15.00000381469727 0 L 45 0 L 60 25.5 L 45 51 L 15.00000381469727 51 L 3.814697265625e-06 25.5 L 15.00000381469727 0 Z" stroke="none" fill="#962932"/>
    </g>
    <g id="Group_133" data-name="Group 133" transform="translate(1.5 0.5)">
      <line id="Line_11" data-name="Line 11" x2="20" transform="translate(611.5 80.5)" fill="none" stroke="#962932" stroke-width="2"/>
      <line id="Line_12" data-name="Line 12" x2="20" transform="translate(611.5 73.5)" fill="none" stroke="#962932" stroke-width="2"/>
      <line id="Line_13" data-name="Line 13" x2="20" transform="translate(611.5 87.5)" fill="none" stroke="#962932" stroke-width="2"/>
    </g>
  </g>
</svg>
