<svg width="60" height="50" viewBox="0 0 60 50" fill="none" xmlns="http://www.w3.org/2000/svg">
<path d="M59.417 25L44.721 49.5H15.279L0.583053 25L15.279 0.5H44.721L59.417 25Z" fill="white" stroke="#962932"/>
<g clip-path="url(#clip0)">
<path d="M29.829 24.5609C31.4172 24.5609 32.7925 23.9913 33.9163 22.8674C35.04 21.7437 35.6096 20.3687 35.6096 18.7803C35.6096 17.1924 35.04 15.8173 33.9161 14.6932C32.7922 13.5696 31.4171 13 29.829 13C28.2405 13 26.8656 13.5696 25.7419 14.6934C24.6182 15.8171 24.0483 17.1922 24.0483 18.7803C24.0483 20.3687 24.6182 21.7438 25.7421 22.8676C26.866 23.9911 28.2411 24.5609 29.829 24.5609V24.5609Z" fill="#962932"/>
<path d="M39.9435 31.4548C39.9111 30.9872 39.8456 30.4771 39.7491 29.9384C39.6517 29.3956 39.5262 28.8826 39.3761 28.4136C39.221 27.929 39.0101 27.4503 38.7493 26.9916C38.4787 26.5156 38.1608 26.101 37.8041 25.7599C37.4312 25.403 36.9745 25.1161 36.4464 24.9068C35.9202 24.6986 35.337 24.5931 34.7131 24.5931C34.4681 24.5931 34.2312 24.6937 33.7736 24.9916C33.492 25.1752 33.1626 25.3876 32.7949 25.6226C32.4805 25.8229 32.0546 26.0106 31.5286 26.1805C31.0153 26.3466 30.4942 26.4308 29.9799 26.4308C29.4655 26.4308 28.9446 26.3466 28.4308 26.1805C27.9053 26.0107 27.4794 25.8231 27.1653 25.6227C26.8011 25.39 26.4716 25.1776 26.1857 24.9914C25.7287 24.6935 25.4916 24.593 25.2466 24.593C24.6226 24.593 24.0396 24.6986 23.5135 24.907C22.9858 25.1159 22.5289 25.4028 22.1556 25.7601C21.7991 26.1014 21.481 26.5157 21.2108 26.9916C20.9502 27.4503 20.7393 27.9288 20.584 28.4138C20.434 28.8828 20.3086 29.3956 20.2112 29.9384C20.1147 30.4763 20.0491 30.9866 20.0167 31.4554C19.9849 31.9146 19.9688 32.3912 19.9688 32.8726C19.9688 34.1254 20.367 35.1397 21.1523 35.8876C21.928 36.6257 22.9543 37.0002 24.2023 37.0002H35.7585C37.0065 37.0002 38.0325 36.6259 38.8083 35.8876C39.5938 35.1402 39.9921 34.1258 39.9921 32.8724C39.9919 32.3889 39.9756 31.9119 39.9435 31.4548V31.4548Z" fill="#962932"/>
</g>
<defs>
<clipPath id="clip0">
<rect x="18" y="13" width="24" height="24.0001" fill="white"/>
</clipPath>
</defs>
</svg>
