<svg width="60" height="50" viewBox="0 0 60 50" fill="none" xmlns="http://www.w3.org/2000/svg">
<path d="M45.0042 50H14.9958L0 25L14.9958 0H45.0042L60 25L45.0042 50Z" fill="#962932"/>
<path d="M41.8535 35.4395L34.8817 28.4677C36.204 26.8351 37 24.7597 37 22.5C37 17.2617 32.7383 13 27.5 13C22.2617 13 18 17.2617 18 22.5C18 27.7383 22.2617 32.0001 27.5 32.0001C29.7597 32.0001 31.8351 31.204 33.4677 29.8817L40.4395 36.8536C40.6348 37.0488 40.9513 37.0488 41.1467 36.8536L41.8536 36.1466C42.0488 35.9513 42.0488 35.6347 41.8535 35.4395ZM27.5 30.0001C23.3643 30.0001 20 26.6358 20 22.5C20 18.3643 23.3643 15 27.5 15C31.6358 15 35.0001 18.3643 35.0001 22.5C35.0001 26.6358 31.6358 30.0001 27.5 30.0001Z" fill="white"/>
</svg>
